<svg width="175" height="97" viewBox="0 0 175 97" fill="none" xmlns="http://www.w3.org/2000/svg">
<g clip-path="url(#clip0)">
<path d="M4.97815 49.0153H10.7221L11.6795 47.1007C12.0624 46.5263 12.2539 46.9092 12.4453 47.1007L12.8283 48.8239H13.7856L14.36 50.547L15.3173 35.0383L16.6576 56.674L17.4234 49.2068H19.9125L20.8698 48.058C21.2528 47.6751 22.0186 47.6751 22.4016 48.058L23.3589 49.0153H25.848L26.8053 47.1007C27.1882 46.5263 27.3797 46.9092 27.5711 47.1007L27.9541 48.8239H28.7199L29.2943 50.547L30.2517 34.8468L31.5919 56.4825L32.3578 49.0153H34.8469L35.8042 47.8665C36.1871 47.4836 36.953 47.4836 37.3359 47.8665L38.2932 48.8239M69.6937 49.0153C68.9278 48.058 69.1193 47.2921 69.8852 46.3348C67.3961 46.1433 65.29 45.3775 64.1412 42.6969C63.1838 42.6969 62.6094 43.0799 63.1838 45.186C63.9497 47.2921 65.4814 47.6751 67.2046 47.6751C67.779 48.058 68.3534 48.2495 68.5449 49.0153H69.6937ZM59.1631 49.0153C57.8228 47.2921 56.8655 45.7604 56.674 43.6543C53.9935 43.4628 51.3129 42.5055 48.6324 41.3567C49.7812 42.1225 49.7812 42.1225 50.7385 43.0799C52.6532 44.9945 49.3983 46.9092 48.058 44.8031C49.9727 46.9092 49.3983 48.6324 48.2495 49.0153H59.1631V49.0153ZM136.515 49.0153H127.899C129.048 48.4409 130.006 47.1007 130.771 45.5689C131.154 44.8031 131.346 44.2287 131.729 43.4628C132.112 41.7396 132.686 40.0164 133.069 38.4847C133.452 36.953 132.878 35.9956 131.92 35.4212C131.346 34.4639 131.346 33.3151 131.92 32.1663C132.303 31.209 132.686 30.0602 132.878 29.1028C133.452 23.9333 130.963 21.0613 127.708 19.3381C129.24 17.4234 129.814 15.3173 129.24 13.2112C128.474 10.5306 125.793 9.19038 123.687 7.46718C121.39 5.55252 120.432 3.06346 121.198 0.574402C118.518 3.06346 117.752 5.93545 123.496 11.488C125.219 13.0197 126.176 15.1258 125.41 18.7637C123.879 18.3807 122.347 18.7637 121.007 19.3381C118.709 20.6783 117.752 22.7845 115.454 24.6991C114.497 24.6991 113.539 24.5077 112.391 24.5077C116.028 21.4442 118.709 16.2746 115.454 11.105C113.731 8.23305 111.625 8.04158 110.093 8.61598C108.178 9.57331 108.178 12.0624 109.519 14.1685C110.667 16.0832 111.242 18.1893 111.05 21.0613C110.285 20.4869 109.519 19.9125 108.753 19.3381C109.327 18.9551 109.71 18.5722 110.093 17.9978C109.519 18.3807 108.944 18.7637 108.37 19.1466C108.753 17.9978 108.753 17.0405 108.753 16.0832C108.561 17.2319 108.37 18.1893 107.987 19.1466C108.178 17.8063 107.795 17.232 107.221 16.6576C107.413 17.4234 107.604 18.1893 107.413 18.7637C106.455 18.5722 105.498 18.3807 104.541 17.9978C103.775 15.3173 102.051 13.4026 100.137 12.0624C97.6477 11.2965 95.1587 11.2965 93.4355 13.4026C91.9038 15.3173 92.0952 17.232 95.5416 17.8063C96.6904 17.9978 98.0307 17.4234 99.7539 16.6576C100.52 17.232 101.094 17.8063 101.86 18.5722C99.9453 19.721 98.988 21.0613 98.988 22.7845C98.988 24.5077 98.6051 25.465 97.8392 26.0394C96.4989 26.9967 95.7331 27.7626 95.3501 28.7199C94.7757 30.826 95.5416 32.7407 97.6477 33.8895C97.6477 35.4212 98.0307 36.7615 100.137 37.9103C98.4136 40.7823 96.4989 42.5055 94.5843 44.0372C94.0099 44.6116 93.244 44.9945 92.6696 44.9945C91.5208 44.8031 90.372 44.9945 89.4147 45.3775C88.2659 45.9519 87.1171 47.4836 87.883 49.0153H76.7779C77.5438 47.6751 77.5438 46.3348 76.7779 44.8031C80.2243 42.6969 83.0963 40.3993 82.7134 36.3786C83.8622 35.9956 85.011 34.4639 85.7768 32.3578C86.5427 30.826 85.9683 30.4431 84.8195 30.6346C82.5219 30.826 79.4585 31.9748 78.1182 31.5919C76.7779 30.4431 75.2462 29.6772 74.2889 28.337C73.1401 26.6138 73.3315 24.6991 71.7998 22.7845C69.3108 23.9333 67.5876 26.0394 67.3961 29.4858C66.6302 28.9114 66.0558 28.9114 65.29 28.9114C66.2473 29.1028 66.2473 30.0602 65.6729 30.4431C64.907 30.0602 64.3326 30.0602 63.7582 30.0602C64.3326 30.2516 64.7156 31.0175 64.3326 31.5919C63.9497 32.1663 63.3753 32.1663 62.418 31.7834C59.7374 29.4858 56.8655 27.3797 54.1849 25.0821C53.2276 22.4015 52.8447 22.0186 52.6532 18.9551C52.2703 13.5941 51.6959 9.57331 48.6324 7.46718C45.186 5.16959 42.1226 7.08425 40.3994 8.99891C38.4847 11.2965 37.9103 13.4026 39.825 14.36C41.5482 15.1258 43.4628 13.977 43.8458 11.6794C44.0372 10.5306 44.9946 9.95624 45.9519 10.3392C47.4836 11.105 47.8666 12.6368 48.058 14.9344C48.2495 19.3381 48.2495 20.8698 48.6324 25.2735C46.9092 27.5711 45.9519 30.2516 45.9519 33.3151C45.9519 34.6554 44.8031 35.6127 43.2714 36.3786C41.7396 37.1444 40.7823 38.2932 40.9738 39.8249C41.1652 41.9311 41.7396 44.0372 42.1226 45.9519C42.1226 46.9092 41.9311 48.058 42.8884 48.6324H38.8676L136.515 49.0153ZM113.922 49.0153C115.071 46.5263 116.028 44.0372 116.22 41.7396C120.049 41.1652 123.113 39.2506 125.602 36.7615C126.176 36.953 126.559 37.5274 126.751 38.8676C126.559 39.6335 126.368 40.2079 126.368 40.9737C125.985 41.9311 125.41 42.5055 124.453 42.8884C123.113 43.2713 122.155 44.0372 121.772 44.9945C121.581 46.7177 122.347 47.4836 123.496 47.6751C124.07 48.4409 123.879 48.4409 124.836 49.0153H113.922ZM98.0307 49.0153C100.711 46.7177 103.2 43.2713 105.306 39.2506C107.221 40.3993 109.136 41.1652 111.05 41.7396C110.285 44.6116 108.944 47.2921 106.455 49.2068L98.0307 49.0153ZM170.022 49.0153H164.278L163.321 47.1007C162.938 46.5263 162.746 46.9092 162.555 47.1007L162.172 48.8239H161.214L160.64 50.547L159.683 34.8468L158.342 56.4825L157.577 49.0153H155.088L154.13 47.8665C153.747 47.4836 152.981 47.4836 152.599 47.8665L151.641 48.8239H149.152L148.195 46.9092C147.812 46.3348 147.62 46.7177 147.429 46.9092L147.046 48.6324H146.089L145.514 50.547L144.557 34.8468L143.217 56.4825L142.451 49.0153H139.962L139.004 47.8665C138.621 47.4836 137.856 47.4836 137.473 47.8665L136.515 48.8239L170.022 49.0153Z" stroke="#EC6608" stroke-width="0.5095" stroke-miterlimit="22.9256" stroke-linecap="round" stroke-linejoin="round"/>
<path d="M60.1203 64.5241H65.0985L62.6094 68.1619H57.6313L60.1203 64.5241ZM175 77.3523C175 78.3096 175 78.884 174.809 79.4584C174.617 80.0328 174.426 80.6072 173.851 80.9902C173.468 81.3731 172.894 81.5646 172.128 81.756C171.362 81.9475 170.405 81.9475 169.256 81.9475H154.513V78.1182H168.49C169.065 78.1182 169.639 77.9267 169.83 77.7352C170.022 77.5438 170.213 77.1608 170.213 76.5864V76.012C170.213 74.8632 169.83 74.8632 168.682 74.8632H158.917C157.96 74.8632 157.194 74.6718 156.619 74.4803C156.045 74.2888 155.47 73.9059 155.279 73.523C154.896 73.14 154.705 72.5656 154.513 71.9912C154.322 71.4168 154.322 70.651 154.322 69.8851V68.3534C154.322 67.5875 154.322 67.0131 154.513 66.4387C154.705 65.8643 154.896 65.4814 155.279 65.0985C155.662 64.7155 156.045 64.5241 156.811 64.3326C157.385 64.1411 158.151 64.1411 159.108 64.1411H169.256L171.745 68.1619H160.257C159.874 68.1619 159.491 68.1619 159.3 68.3534C159.108 68.5449 158.917 68.9278 158.917 69.3107V69.6937C158.917 70.2681 158.917 70.4595 159.108 70.651C159.3 70.8425 159.683 70.8425 160.066 70.8425H169.447C170.596 70.8425 171.362 70.8424 172.128 71.0339C172.894 71.2254 173.468 71.4168 173.851 71.9912C174.234 72.3742 174.617 72.9486 174.617 73.523C174.809 74.0974 174.809 74.8632 174.809 75.8206V77.3523H175ZM132.495 69.8851C132.495 68.5449 131.729 68.3534 130.58 68.3534H121.772C120.049 68.3534 119.666 68.7363 119.666 70.0766V71.4168H132.686V69.8851H132.495ZM119.475 75.0547V75.8206C119.475 77.9267 120.241 78.3096 122.347 78.3096H128.474L125.985 82.139H122.155C119.475 82.139 117.56 81.5646 116.22 80.6072C115.071 79.4584 114.497 77.9267 114.497 75.4376V71.4168C114.497 70.0766 114.688 69.1193 114.88 68.1619C115.071 67.2046 115.454 66.6302 116.22 66.0558C116.794 65.4814 117.56 65.0985 118.709 64.907C119.666 64.7155 121.007 64.5241 122.538 64.5241H130.963C132.112 64.5241 133.26 64.7155 134.026 64.907C134.792 65.0985 135.558 65.4814 135.941 65.8643C136.324 66.2473 136.707 66.8217 136.898 67.3961C137.09 67.9705 137.09 68.7363 137.09 69.3107V75.0547H119.475ZM108.178 66.0558C108.178 64.907 107.987 63.9497 107.412 63.5667C106.838 63.1838 106.072 62.9923 104.732 62.9923H93.244V70.651H104.732C106.072 70.651 106.838 70.4595 107.412 70.0766C107.987 69.6937 108.178 68.9278 108.178 67.779V66.0558ZM93.244 74.6718V82.139H88.4573V58.7801H104.923C106.455 58.7801 107.795 58.9716 108.753 59.163C109.71 59.3545 110.667 59.7374 111.242 60.3118C111.816 60.8862 112.391 61.6521 112.582 62.6094C112.774 63.5667 112.965 64.7155 112.965 65.8643V67.779C112.965 69.1193 112.774 70.2681 112.582 71.0339C112.391 71.9912 111.816 72.5656 111.242 73.14C110.667 73.7144 109.71 74.0974 108.753 74.2888C107.795 74.4803 106.455 74.6718 104.732 74.6718H93.244ZM139.77 58.7801V74.6718C139.77 76.012 139.962 77.1608 140.153 78.1182C140.536 79.0755 140.919 79.8414 141.493 80.4158C142.068 80.9902 143.025 81.3731 143.982 81.756C144.94 81.9475 146.28 82.139 147.62 82.139H150.684V78.3096H147.812C147.237 78.3096 146.663 78.3096 146.089 78.1182C145.706 77.9267 145.323 77.7352 144.94 77.5438C144.748 77.3523 144.557 76.9694 144.365 76.395C144.174 76.012 144.174 75.4376 144.174 74.6718V67.9705H150.684V64.3326H144.174V58.5886H139.77V58.7801Z" fill="#007E92"/>
<path d="M129.814 78.5011H134.792L132.303 82.139H127.325L129.814 78.5011ZM80.2243 82.139V58.7801H85.0109V82.139H80.2243ZM72.9486 74.6718H60.6948C59.546 74.6718 58.9716 75.2462 58.9716 76.395V76.5864C58.9716 77.7352 59.7374 78.3096 60.8862 78.3096H69.8851C72.1827 78.3096 73.1401 78.3096 73.1401 76.012V74.6718H72.9486ZM60.5033 82.139C57.0569 82.139 54.1849 81.1816 54.1849 77.5438V75.8206C54.1849 72.1827 56.674 71.2254 60.1204 71.2254H72.9486V70.8425C72.9486 68.7363 72.1827 68.1619 70.0766 68.1619H64.1411L66.6302 64.5241H70.0766C71.4168 64.5241 72.5657 64.7155 73.523 64.907C75.2462 65.2899 76.5864 66.4387 77.1608 68.1619C77.3523 68.9278 77.5438 69.8851 77.5438 71.0339V75.2462C77.5438 80.6072 75.0547 82.139 69.6937 82.139H60.5033ZM41.3567 58.7801V74.6718C41.3567 76.012 41.5481 77.1608 41.7396 78.1182C42.1225 79.0755 42.5055 79.8414 43.0799 80.4158C43.6543 80.9902 44.6116 81.3731 45.5689 81.756C46.5263 81.9475 47.8665 82.139 49.2068 82.139H52.2702V78.3096H49.3983C48.8239 78.3096 48.2495 78.3096 47.6751 78.1182C47.2921 77.9267 46.9092 77.7352 46.5263 77.5438C46.3348 77.3523 46.1433 76.9694 45.9519 76.395C45.7604 76.012 45.7604 75.4376 45.7604 74.6718V67.9705H52.2702V64.3326H45.7604V58.5886H41.3567V58.7801ZM33.698 82.139V64.5241H38.4847V82.139H33.698ZM19.5295 80.4158C19.1466 81.1816 18.7637 81.756 18.1893 82.139C17.6149 82.5219 17.0405 82.7133 16.0832 82.7133C15.1258 82.7133 14.36 82.5219 13.977 82.139C13.4026 81.5646 12.8282 80.9902 12.4453 80.4158L0 58.7801H5.93545L16.2746 76.395L26.6138 58.7801H32.3578L19.5295 80.4158ZM33.698 62.9923V58.5886H38.4847V62.9923H33.698Z" fill="#AFCA0B"/>
<path d="M139.387 88.8403H140.728L143.791 96.8818H142.642L141.876 94.7757H138.047L137.281 96.8818H136.132L139.387 88.8403ZM139.962 89.7976L138.43 93.8184H141.493L139.962 89.7976ZM134.026 88.8403H135.175V96.8818H134.026V88.8403ZM127.325 88.8403H129.431C130.388 88.8403 130.963 89.0317 131.537 89.4146C131.92 89.7976 132.303 90.1805 132.303 90.9464C132.303 91.5208 132.112 91.9037 131.92 92.2866C131.537 92.6696 131.154 92.861 130.58 93.0525C130.771 93.0525 130.963 93.244 131.154 93.4354C131.346 93.6269 131.537 93.8184 131.537 94.2013L132.686 97.0733H131.537L130.58 94.3928C130.388 94.0098 130.197 93.8184 130.006 93.6269C129.814 93.4354 129.431 93.4354 129.048 93.4354H128.474V96.8818H127.325V88.8403ZM128.474 89.6061V92.2866H129.24C129.814 92.2866 130.197 92.0952 130.58 91.9037C130.963 91.7122 130.963 91.3293 130.963 90.9464C130.963 90.5634 130.771 90.1805 130.58 89.989C130.197 89.7976 129.814 89.6061 129.24 89.6061H128.474ZM123.113 85.9683H124.262L122.73 87.8829H122.155L123.113 85.9683ZM122.155 88.8403H123.496L126.559 96.8818H125.41L124.644 94.7757H120.815L120.049 96.8818H118.9L122.155 88.8403ZM122.73 89.7976L121.198 93.8184H124.262L122.73 89.7976ZM111.816 88.8403H113.156L116.603 94.9672C116.603 94.9672 116.794 95.1586 116.794 95.3501C116.794 95.5416 116.986 95.733 116.986 95.9245C116.986 95.5416 116.986 95.3501 116.794 95.1586C116.794 94.9672 116.794 94.7757 116.794 94.5842V88.6488H117.752V96.6904H116.411L112.965 90.372C112.965 90.372 112.774 90.1805 112.774 89.989C112.774 89.7976 112.582 89.6061 112.582 89.2232C112.582 89.6061 112.774 89.989 112.774 90.1805C112.774 90.372 112.774 90.5634 112.774 90.7549V96.6904H111.816V88.8403ZM108.561 88.8403H109.71V96.8818H108.561V88.8403ZM102.051 88.8403H104.158C105.115 88.8403 105.689 89.0317 106.264 89.4146C106.647 89.7976 107.03 90.1805 107.03 90.9464C107.03 91.5208 106.838 91.9037 106.647 92.2866C106.264 92.6696 105.881 92.861 105.306 93.0525C105.498 93.0525 105.689 93.244 105.881 93.4354C106.072 93.6269 106.264 93.8184 106.264 94.2013L107.413 97.0733H106.264L105.306 94.2013C105.115 93.8184 104.923 93.6269 104.732 93.4354C104.541 93.244 104.158 93.244 103.775 93.244H103.2V96.6904H102.051V88.8403ZM103.2 89.6061V92.2866H103.966C104.541 92.2866 104.923 92.0952 105.306 91.9037C105.689 91.7122 105.689 91.3293 105.689 90.9464C105.689 90.5634 105.498 90.1805 105.306 89.989C104.923 89.7976 104.541 89.6061 103.966 89.6061H103.2ZM95.9245 88.8403H100.328V89.6061H97.0733V92.0952H100.137V93.0525H97.0733V95.733H100.328V96.6904H95.9245V88.8403ZM89.2232 88.8403H94.7757V89.7976H92.4781V96.8818H91.3293V89.7976H89.0318V88.8403H89.2232ZM84.0536 88.8403H88.4574V89.6061H85.2024V92.0952H88.0744V93.0525H85.011V95.733H88.2659V96.6904H83.8622V88.8403H84.0536ZM75.8206 88.8403H76.9694L79.267 95.733L81.756 88.8403H82.9048L80.0328 96.8818H78.6926L75.8206 88.8403ZM68.1619 88.8403H69.5022L72.5657 96.8818H71.4169L70.651 94.7757H66.8217L66.0558 96.8818H64.907L68.1619 88.8403ZM68.7363 89.7976L67.2046 93.8184H70.2681L68.7363 89.7976ZM64.5241 89.0317V89.989C64.1412 89.7976 63.9497 89.7976 63.5668 89.7976C63.1838 89.7976 62.9924 89.7976 62.6094 89.7976C61.6521 89.7976 60.8862 89.989 60.3118 90.5634C59.7374 91.1378 59.546 91.9037 59.546 92.861C59.546 93.8184 59.7374 94.5842 60.3118 95.1586C60.8862 95.733 61.6521 95.9245 62.6094 95.9245C62.9924 95.9245 63.1838 95.9245 63.5668 95.9245C63.9497 95.9245 64.1412 95.733 64.5241 95.733V96.6904C64.3326 96.6904 63.9497 96.8818 63.5668 96.8818C63.1838 96.8818 62.9924 96.8818 62.6094 96.8818C61.2692 96.8818 60.3118 96.4989 59.546 95.733C58.7801 94.9672 58.3972 94.0098 58.3972 92.861C58.3972 91.7122 58.7801 90.5634 59.546 89.989C60.3118 89.2232 61.2692 88.8403 62.6094 88.8403C62.9924 88.8403 63.3753 88.8403 63.5668 88.8403C63.9497 88.8403 64.3326 88.8402 64.5241 89.0317ZM55.7167 88.8403H56.8654V96.8818H55.7167V88.8403ZM47.6751 88.8403H49.0153L52.4617 94.9672C52.4617 94.9672 52.6532 95.1586 52.6532 95.3501C52.6532 95.5416 52.8447 95.733 52.8447 95.9245C52.8447 95.5416 52.8447 95.3501 52.6532 95.1586C52.6532 94.9672 52.6532 94.7757 52.6532 94.5842V88.6488H53.6105V96.6904H52.2703L48.8239 90.372C48.8239 90.372 48.6324 90.1805 48.6324 89.989C48.6324 89.7976 48.4409 89.6061 48.4409 89.2232C48.4409 89.6061 48.6324 89.989 48.6324 90.1805C48.6324 90.372 48.6324 90.5634 48.6324 90.7549V96.6904H47.6751V88.8403ZM45.5689 85.9683H46.7177L45.186 87.8829H44.6116L45.5689 85.9683ZM44.6116 88.8403H45.7604V96.8818H44.6116V88.8403ZM39.2506 88.8403H40.3994V95.733H43.6543V96.6904H39.442V88.8403H39.2506ZM37.9103 89.0317V89.989C37.5274 89.7976 37.3359 89.7976 36.953 89.7976C36.57 89.7976 36.3786 89.7976 35.9956 89.7976C35.0383 89.7976 34.2724 89.989 33.698 90.5634C33.1236 91.1378 32.9322 91.9037 32.9322 92.861C32.9322 93.8184 33.1236 94.5842 33.698 95.1586C34.2724 95.733 35.0383 95.9245 35.9956 95.9245C36.3786 95.9245 36.57 95.9245 36.953 95.9245C37.3359 95.9245 37.5274 95.733 37.9103 95.733V96.6904C37.7188 96.6904 37.3359 96.8818 36.953 96.8818C36.57 96.8818 36.3786 96.8818 35.9956 96.8818C34.6554 96.8818 33.698 96.4989 32.9322 95.733C32.1663 94.9672 31.7834 94.0098 31.7834 92.861C31.7834 91.7122 32.1663 90.5634 32.9322 89.989C33.698 89.2232 34.6554 88.8403 35.9956 88.8403C36.3786 88.8403 36.7615 88.8403 36.953 88.8403C37.3359 88.8403 37.7188 88.8402 37.9103 89.0317Z" fill="#B2B2B2"/>
</g>
<defs>
<clipPath id="clip0">
<rect width="175" height="96.6904" fill="white"/>
</clipPath>
</defs>
</svg>
