<svg width="174" height="41" viewBox="0 0 174 41" fill="none" xmlns="http://www.w3.org/2000/svg">
<path d="M59.7463 6.32338H64.6935L62.2199 10.199H57.2728L59.7463 6.32338ZM173.911 19.99C173.911 21.0099 173.911 21.6219 173.721 22.2338C173.531 22.8458 173.34 23.4577 172.77 23.8657C172.389 24.2736 171.818 24.4776 171.057 24.6816C170.296 24.8856 169.345 24.8856 168.203 24.8856H153.552V20.806H167.442C168.013 20.806 168.583 20.602 168.774 20.398C168.964 20.194 169.154 19.7861 169.154 19.1741V18.5622C169.154 17.3383 168.774 17.3383 167.632 17.3383H157.928C156.977 17.3383 156.216 17.1343 155.645 16.9303C155.074 16.7264 154.503 16.3184 154.313 15.9104C153.932 15.5025 153.742 14.8905 153.552 14.2786C153.362 13.6667 153.362 12.8507 153.362 12.0348V10.403C153.362 9.58706 153.362 8.97512 153.552 8.36318C153.742 7.75124 153.932 7.34328 154.313 6.93532C154.693 6.52736 155.074 6.32337 155.835 6.11939C156.406 5.91541 157.167 5.91542 158.118 5.91542H168.203L170.677 10.199H159.26C158.879 10.199 158.499 10.199 158.309 10.403C158.118 10.607 157.928 11.0149 157.928 11.4229V11.8308C157.928 12.4428 157.928 12.6468 158.118 12.8507C158.309 13.0547 158.689 13.0547 159.07 13.0547H168.393C169.535 13.0547 170.296 13.0547 171.057 13.2587C171.818 13.4627 172.389 13.6667 172.77 14.2786C173.15 14.6866 173.531 15.2985 173.531 15.9104C173.721 16.5224 173.721 17.3383 173.721 18.3582V19.99H173.911ZM131.67 12.0348C131.67 10.607 130.909 10.403 129.767 10.403H121.015C119.302 10.403 118.922 10.8109 118.922 12.2388V13.6667H131.86V12.0348H131.67ZM118.732 17.5423V18.3582C118.732 20.602 119.493 21.0099 121.586 21.0099H127.674L125.201 25.0895H121.395C118.732 25.0895 116.829 24.4776 115.497 23.4577C114.355 22.2338 113.784 20.602 113.784 17.9502V13.6667C113.784 12.2388 113.975 11.2189 114.165 10.199C114.355 9.17909 114.736 8.56716 115.497 7.95522C116.068 7.34328 116.829 6.93532 117.97 6.73134C118.922 6.52736 120.254 6.32338 121.776 6.32338H130.148C131.29 6.32338 132.431 6.52736 133.192 6.73134C133.953 6.93532 134.715 7.34328 135.095 7.75124C135.476 8.1592 135.856 8.77114 136.047 9.38308C136.237 9.99502 136.237 10.8109 136.237 11.4229V17.5423H118.732ZM107.505 7.95522C107.505 6.73134 107.315 5.71144 106.744 5.30348C106.173 4.89552 105.412 4.69154 104.08 4.69154H92.6639V12.8507H104.08C105.412 12.8507 106.173 12.6468 106.744 12.2388C107.315 11.8308 107.505 11.0149 107.505 9.79104V7.95522ZM92.6639 17.1343V25.0895H87.907V0.203981H104.271C105.793 0.203981 107.125 0.407958 108.076 0.611938C109.028 0.815918 109.979 1.22388 110.55 1.83582C111.121 2.44776 111.691 3.26368 111.882 4.28358C112.072 5.30348 112.262 6.52736 112.262 7.75124V9.79104C112.262 11.2189 112.072 12.4428 111.882 13.2587C111.691 14.2786 111.121 14.8905 110.55 15.5025C109.979 16.1144 109.028 16.5224 108.076 16.7264C107.125 16.9303 105.793 17.1343 104.08 17.1343H92.6639ZM138.901 0.203981V17.1343C138.901 18.5622 139.091 19.7861 139.281 20.806C139.662 21.8259 140.042 22.6418 140.613 23.2537C141.184 23.8657 142.135 24.2736 143.087 24.6816C144.038 24.8856 145.37 25.0895 146.702 25.0895H149.746V21.0099H146.892C146.321 21.0099 145.751 21.0099 145.18 20.806C144.799 20.602 144.419 20.398 144.038 20.194C143.848 19.99 143.658 19.5821 143.467 18.9701C143.277 18.5622 143.277 17.9502 143.277 17.1343V9.99502H149.746V6.11939H143.277V0H138.901V0.203981Z" fill="#007E92"/>
<path d="M129.006 21.2139H133.953L131.48 25.0895H126.533L129.006 21.2139ZM79.7251 25.0895V0.203981H84.482V25.0895H79.7251ZM72.4947 17.1343H60.3171C59.1754 17.1343 58.6046 17.7463 58.6046 18.9701V19.1741C58.6046 20.398 59.3657 21.0099 60.5074 21.0099H69.4503C71.7336 21.0099 72.685 21.0099 72.685 18.5622V17.1343H72.4947ZM60.1268 25.0895C56.7019 25.0895 53.8478 24.0696 53.8478 20.194V18.3582C53.8478 14.4826 56.3213 13.4627 59.7463 13.4627H72.4947V13.0547C72.4947 10.8109 71.7336 10.199 69.6406 10.199H63.742L66.2156 6.32338H69.6406C70.9725 6.32338 72.1141 6.52736 73.0655 6.73134C74.778 7.1393 76.1099 8.36317 76.6807 10.199C76.871 11.0149 77.0613 12.0348 77.0613 13.2587V17.7462C77.0613 23.4577 74.5877 25.0895 69.26 25.0895H60.1268ZM41.0993 0.203981V17.1343C41.0993 18.5622 41.2896 19.786 41.4799 20.8059C41.8604 21.8258 42.241 22.6418 42.8118 23.2537C43.3826 23.8656 44.334 24.2736 45.2854 24.6816C46.2368 24.8855 47.5687 25.0895 48.9006 25.0895H51.945V21.0099H49.0909C48.5201 21.0099 47.9492 21.0099 47.3784 20.8059C46.9979 20.602 46.6173 20.398 46.2368 20.194C46.0465 19.99 45.8562 19.5821 45.6659 18.9701C45.4757 18.5622 45.4757 17.9502 45.4757 17.1343V9.99501H51.945V6.11939H45.4757V0H41.0993V0.203981ZM33.4884 25.0895V6.32338H38.2452V25.0895H33.4884ZM19.408 23.2537C19.0275 24.0696 18.6469 24.6816 18.0761 25.0895C17.5053 25.4975 16.9345 25.7015 15.9831 25.7015C15.0317 25.7015 14.2706 25.4975 13.8901 25.0895C13.3192 24.4776 12.7484 23.8656 12.3679 23.2537L0 0.203981H5.89852L16.1734 18.9701L26.4482 0.203981H32.1564L19.408 23.2537ZM33.4884 4.69154V0H38.2452V4.69154H33.4884Z" fill="#AFCA0B"/>
<path d="M138.52 32.2286H139.852L142.896 40.7958H141.755L140.994 38.552H137.188L136.427 40.7958H135.285L138.52 32.2286ZM139.091 33.2485L137.569 37.5321H140.613L139.091 33.2485ZM133.192 32.2286H134.334V40.7958H133.192V32.2286ZM126.533 32.2286H128.626C129.577 32.2286 130.148 32.4326 130.719 32.8406C131.099 33.2485 131.48 33.6565 131.48 34.4724C131.48 35.0844 131.29 35.4923 131.099 35.9003C130.719 36.3082 130.338 36.5122 129.767 36.7162C129.958 36.7162 130.148 36.9202 130.338 37.1242C130.529 37.3281 130.719 37.5321 130.719 37.9401L131.86 40.9998H130.719L129.767 38.1441C129.577 37.7361 129.387 37.5321 129.197 37.3281C129.006 37.1242 128.626 37.1242 128.245 37.1242H127.674V40.7958H126.533V32.2286ZM127.674 33.0446V35.9003H128.436C129.006 35.9003 129.387 35.6963 129.767 35.4923C130.148 35.2883 130.148 34.8804 130.148 34.4724C130.148 34.0645 129.958 33.6565 129.767 33.4525C129.387 33.2485 129.006 33.0446 128.436 33.0446H127.674ZM122.347 29.1689H123.488L121.966 31.2087H121.395L122.347 29.1689ZM121.395 32.2286H122.727L125.772 40.7958H124.63L123.869 38.552H120.063L119.302 40.7958H118.161L121.395 32.2286ZM121.966 33.2485L120.444 37.5321H123.488L121.966 33.2485ZM111.121 32.2286H112.452L115.877 38.756C115.877 38.756 116.068 38.96 116.068 39.164C116.068 39.3679 116.258 39.5719 116.258 39.7759C116.258 39.3679 116.258 39.164 116.068 38.96C116.068 38.756 116.068 38.552 116.068 38.348V32.0247H117.019V40.5918H115.687L112.262 33.8605C112.262 33.8605 112.072 33.6565 112.072 33.4525C112.072 33.2485 111.882 33.0446 111.882 32.6366C111.882 33.0446 112.072 33.4525 112.072 33.6565C112.072 33.8605 112.072 34.0645 112.072 34.2684V40.5918H111.121V32.2286ZM107.886 32.2286H109.028V40.7958H107.886V32.2286ZM101.417 32.2286H103.51C104.461 32.2286 105.032 32.4326 105.603 32.8406C105.983 33.2485 106.364 33.6565 106.364 34.4724C106.364 35.0844 106.173 35.4923 105.983 35.9003C105.603 36.3082 105.222 36.5122 104.651 36.7162C104.841 36.7162 105.032 36.9202 105.222 37.1242C105.412 37.3281 105.603 37.5321 105.603 37.9401L106.744 40.9998H105.603L104.651 37.9401C104.461 37.5321 104.271 37.3281 104.08 37.1242C103.89 36.9202 103.51 36.9202 103.129 36.9202H102.558V40.5918H101.417V32.2286ZM102.558 33.0446V35.9003H103.319C103.89 35.9003 104.271 35.6963 104.651 35.4923C105.032 35.2883 105.032 34.8804 105.032 34.4724C105.032 34.0645 104.841 33.6565 104.651 33.4525C104.271 33.2485 103.89 33.0446 103.319 33.0446H102.558ZM95.3277 32.2286H99.7041V33.0446H96.4694V35.6963H99.5138V36.7162H96.4694V39.5719H99.7041V40.5918H95.3277V32.2286ZM88.6681 32.2286H94.1861V33.2485H91.9028V40.7958H90.7611V33.2485H88.4778V32.2286H88.6681ZM83.5307 32.2286H87.907V33.0446H84.6723V35.6963H87.5265V36.7162H84.4821V39.5719H87.7167V40.5918H83.3404V32.2286H83.5307ZM75.3489 32.2286H76.4905L78.7738 39.5719L81.2474 32.2286H82.389L79.5349 40.7958H78.203L75.3489 32.2286ZM67.7379 32.2286H69.0698L72.1142 40.7958H70.9726L70.2115 38.552H66.406L65.6449 40.7958H64.5032L67.7379 32.2286ZM68.3087 33.2485L66.7865 37.5321H69.8309L68.3087 33.2485ZM64.1227 32.4326V33.4525C63.7421 33.2485 63.5519 33.2485 63.1713 33.2485C62.7908 33.2485 62.6005 33.2485 62.2199 33.2485C61.2686 33.2485 60.5075 33.4525 59.9366 34.0645C59.3658 34.6764 59.1755 35.4923 59.1755 36.5122C59.1755 37.5321 59.3658 38.348 59.9366 38.96C60.5075 39.5719 61.2686 39.7759 62.2199 39.7759C62.6005 39.7759 62.7908 39.7759 63.1713 39.7759C63.5519 39.7759 63.7421 39.5719 64.1227 39.5719V40.5918C63.9324 40.5918 63.5519 40.7958 63.1713 40.7958C62.7908 40.7958 62.6005 40.7958 62.2199 40.7958C60.888 40.7958 59.9366 40.3878 59.1755 39.5719C58.4144 38.756 58.0339 37.7361 58.0339 36.5122C58.0339 35.2883 58.4144 34.0645 59.1755 33.4525C59.9366 32.6366 60.888 32.2286 62.2199 32.2286C62.6005 32.2286 62.981 32.2286 63.1713 32.2286C63.5519 32.2286 63.9324 32.2286 64.1227 32.4326ZM55.37 32.2286H56.5117V40.7958H55.37V32.2286ZM47.3785 32.2286H48.7104L52.1354 38.756C52.1354 38.756 52.3256 38.96 52.3256 39.164C52.3256 39.3679 52.5159 39.5719 52.5159 39.7759C52.5159 39.3679 52.5159 39.164 52.3256 38.96C52.3256 38.756 52.3256 38.552 52.3256 38.348V32.0247H53.277V40.5918H51.9451L48.5201 33.8605C48.5201 33.8605 48.3299 33.6565 48.3299 33.4525C48.3299 33.2485 48.1396 33.0446 48.1396 32.6366C48.1396 33.0446 48.3299 33.4525 48.3299 33.6565C48.3299 33.8605 48.3299 34.0645 48.3299 34.2684V40.5918H47.3785V32.2286ZM45.2855 29.1689H46.4271L44.9049 31.2087H44.3341L45.2855 29.1689ZM44.3341 32.2286H45.4757V40.7958H44.3341V32.2286ZM39.0064 32.2286H40.1481V39.5719H43.3827V40.5918H39.1967V32.2286H39.0064ZM37.6745 32.4326V33.4525C37.2939 33.2485 37.1037 33.2485 36.7231 33.2485C36.3426 33.2485 36.1523 33.2485 35.7717 33.2485C34.8204 33.2485 34.0593 33.4525 33.4884 34.0645C32.9176 34.6764 32.7273 35.4923 32.7273 36.5122C32.7273 37.5321 32.9176 38.348 33.4884 38.96C34.0593 39.5719 34.8204 39.7759 35.7717 39.7759C36.1523 39.7759 36.3426 39.7759 36.7231 39.7759C37.1037 39.7759 37.2939 39.5719 37.6745 39.5719V40.5918C37.4842 40.5918 37.1037 40.7958 36.7231 40.7958C36.3426 40.7958 36.1523 40.7958 35.7717 40.7958C34.4398 40.7958 33.4884 40.3878 32.7273 39.5719C31.9662 38.756 31.5857 37.7361 31.5857 36.5122C31.5857 35.2883 31.9662 34.0645 32.7273 33.4525C33.4884 32.6366 34.4398 32.2286 35.7717 32.2286C36.1523 32.2286 36.5328 32.2286 36.7231 32.2286C37.1037 32.2286 37.4842 32.2286 37.6745 32.4326Z" fill="#B2B2B2"/>
</svg>
