<svg width="26" height="30" viewBox="0 0 26 30" fill="none" xmlns="http://www.w3.org/2000/svg">
<g clip-path="url(#clip0)">
<path d="M23.2143 1.875H2.78571C2.0469 1.875 1.33834 2.17132 0.815917 2.69876C0.293494 3.22621 0 3.94158 0 4.6875L0 25.3125C0 26.0584 0.293494 26.7738 0.815917 27.3012C1.33834 27.8287 2.0469 28.125 2.78571 28.125H10.7511V19.2006H7.09487V15H10.7511V11.7984C10.7511 8.15684 12.8984 6.14531 16.1873 6.14531C17.7624 6.14531 19.4095 6.42891 19.4095 6.42891V10.0031H17.5947C15.8066 10.0031 15.2489 11.1234 15.2489 12.2725V15H19.2406L18.6022 19.2006H15.2489V28.125H23.2143C23.9531 28.125 24.6617 27.8287 25.1841 27.3012C25.7065 26.7738 26 26.0584 26 25.3125V4.6875C26 3.94158 25.7065 3.22621 25.1841 2.69876C24.6617 2.17132 23.9531 1.875 23.2143 1.875Z" fill="#AFCA0B"/>
</g>
<defs>
<clipPath id="clip0">
<rect width="26" height="30" fill="white"/>
</clipPath>
</defs>
</svg>
