<svg width="30" height="30" viewBox="0 0 30 30" fill="none" xmlns="http://www.w3.org/2000/svg">
<path d="M27.3633 3.57422H2.63672C1.18465 3.57422 0 4.75758 0 6.21094V23.7891C0 25.2375 1.17938 26.4258 2.63672 26.4258H27.3633C28.8117 26.4258 30 25.2464 30 23.7891V6.21094C30 4.7625 28.8206 3.57422 27.3633 3.57422ZM26.9992 5.33203L15.0559 17.2754L3.00932 5.33203H26.9992ZM1.75781 23.4251V6.56654L10.2234 14.9595L1.75781 23.4251ZM3.00076 24.668L11.4717 16.1971L14.4398 19.1398C14.7834 19.4804 15.3379 19.4793 15.6801 19.1371L18.5742 16.243L26.9992 24.668H3.00076ZM28.2422 23.425L19.8172 15L28.2422 6.57492V23.425Z" fill="#AFCA0B"/>
</svg>
