<svg width="20" height="20" viewBox="0 0 20 20" fill="none" xmlns="http://www.w3.org/2000/svg">
<path d="M20 10C20 12.6711 18.9598 15.182 17.0711 17.0711C15.1828 18.9594 12.6718 19.9995 10.0012 20H10C7.32895 20 4.8175 18.9598 2.92891 17.0711C1.04023 15.182 0 12.6711 0 10C0 7.32895 1.0402 4.8175 2.92891 2.92891C4.8175 1.04023 7.32895 0 10 0H10.0012C12.6718 0.00046875 15.1828 1.04063 17.0711 2.92891C18.9598 4.8175 20 7.32895 20 10Z" fill="#AFCA0B"/>
<path d="M20 10C20 12.6711 18.9598 15.182 17.0711 17.0711C15.1828 18.9594 12.6718 19.9995 10.0012 20V0C12.6718 0.00046875 15.1828 1.04063 17.0711 2.92891C18.9598 4.8175 20 7.32895 20 10Z" fill="#AFCA0B"/>
<path d="M13.9346 8.48664C12.0683 9.52774 12.3861 12.5667 14.4105 12.5667C15.2836 12.5667 16.0392 11.9282 16.3757 11.1121C17.1527 9.22699 15.5369 7.59246 13.9346 8.48664V8.48664Z" fill="white"/>
<path d="M12.0178 8.86308C14.257 8.86308 14.9276 5.16448 12.8002 4.55643C11.8309 4.27948 10.7288 4.94397 10.3748 6.15878C9.97759 7.5203 10.759 8.86308 12.0178 8.86308V8.86308Z" fill="white"/>
<path d="M11.4417 15.4465C11.1308 15.3629 10.5788 15.309 10.0012 15.3012C9.39049 15.2925 8.75115 15.3351 8.33748 15.4465C7.22025 15.7492 5.69998 15.0168 6.03357 13.4956C6.34209 12.0894 7.45064 12.1695 7.71279 10.8368C7.97693 9.48992 9.00342 8.83988 10.0012 8.8907C10.9246 8.93785 11.8234 9.58558 12.0683 10.8371C12.3289 12.1707 13.4351 12.0898 13.7433 13.4956C14.078 15.018 12.5546 15.7464 11.4417 15.4465V15.4465Z" fill="white"/>
<path d="M8.07693 8.86306C8.71029 8.86306 9.25427 8.50525 9.55654 7.95759C10.4551 6.32915 8.97931 4.07482 7.29443 4.55759C5.16342 5.16736 5.83892 8.86306 8.07693 8.86306V8.86306Z" fill="white"/>
<path d="M7.06462 11.3557C7.78364 9.64455 6.07938 7.55443 4.45173 8.21205C2.4911 9.00416 3.35583 12.4205 5.51161 12.4205C6.20341 12.4205 6.79134 12.0062 7.06462 11.3557Z" fill="white"/>
<path d="M11.4418 15.4465C11.1309 15.3629 10.5789 15.309 10.0012 15.3012V8.89075C10.9247 8.9379 11.8234 9.58563 12.0683 10.8372C12.329 12.1707 13.4352 12.0899 13.7433 13.4957C14.0781 15.0181 12.5547 15.7465 11.4418 15.4465V15.4465Z" fill="white"/>
</svg>
