<svg width="60" height="60" viewBox="0 0 60 60" fill="none" xmlns="http://www.w3.org/2000/svg">
<g clip-path="url(#clip0)">
<path d="M48.0689 47.6912C47.932 49.6866 47.1712 51.5461 45.8707 53.0667C44.5707 54.5874 42.8522 55.6261 40.9012 56.0715C40.2141 56.2285 39.5215 56.3059 38.8321 56.3059C37.5637 56.3059 36.3066 56.0436 35.1215 55.5217C32.8015 54.5018 30.3122 53.9919 27.8224 53.9919C25.3757 53.9919 22.9289 54.484 20.6429 55.4691L20.5229 55.5217C18.6905 56.3269 16.6919 56.5169 14.7409 56.0715C12.7913 55.6247 11.0729 54.5861 9.77143 53.0654C8.4723 51.5438 7.71287 49.6857 7.57554 47.6903C7.43821 45.6949 7.93671 43.749 9.01612 42.0653L15.5219 31.9162C18.2218 27.7048 22.82 25.1903 27.8224 25.1903C32.8249 25.1903 37.4227 27.7048 40.1226 31.9162L46.6283 42.0653C47.7082 43.7499 48.2062 45.6949 48.0689 47.6912Z" fill="#AFCA0B" fill-opacity="0.5"/>
<path d="M10.7689 31.9029C12.7043 31.1595 14.1747 29.5999 14.9089 27.5116C15.6079 25.5235 15.5507 23.2796 14.7473 21.1926C13.9435 19.1061 12.4814 17.4032 10.6306 16.3971C8.68561 15.3396 6.54922 15.168 4.617 15.9123C0.729664 17.4069 -1.05424 22.2111 0.640858 26.6231C1.99492 30.135 5.15304 32.352 8.34595 32.352C9.16122 32.352 9.97879 32.2073 10.7689 31.9029Z" fill="#AFCA0B" fill-opacity="0.5"/>
<path d="M32.2059 13.911C32.2059 17.6084 30.4413 20.8452 27.8224 22.5875C26.5196 23.4549 25.0049 23.952 23.3917 23.952C18.5325 23.952 14.5793 19.4467 14.5793 13.911C14.5793 8.3725 18.5325 3.86719 23.3917 3.86719C25.0049 3.86719 26.5196 4.36432 27.8224 5.23178C30.4413 6.97403 32.2059 10.2118 32.2059 13.911Z" fill="#AFCA0B" fill-opacity="0.5"/>
<path d="M49.1982 20.2414C47.8803 24.2052 44.4265 26.7856 40.8825 26.7856C40.1239 26.7856 39.3609 26.6675 38.6129 26.4189C34.3781 25.0108 32.2339 19.9484 33.8343 15.1346C34.5914 12.8535 36.0759 10.9506 38.0127 9.77688C40.0406 8.54962 42.3153 8.25756 44.4182 8.95657C46.5217 9.65649 48.1687 11.2509 49.0572 13.4477C49.9073 15.5461 49.9576 17.959 49.1982 20.2414Z" fill="#AFCA0B"/>
<path d="M58.1503 36.628C56.3622 39.0418 53.6862 40.3546 51.114 40.3546C49.6377 40.3546 48.1957 39.9234 46.9753 39.0184C43.6295 36.5424 43.191 31.4365 45.9975 27.638C48.8078 23.8422 53.8194 22.7692 57.1716 25.2452L57.1725 25.2466C60.5197 27.7249 60.9582 32.8304 58.1503 36.628Z" fill="#AFCA0B"/>
<path d="M27.8224 22.5874V5.23175C30.4413 6.974 32.206 10.2118 32.206 13.911C32.206 17.6083 30.4413 20.8452 27.8224 22.5874Z" fill="#AFCA0B"/>
<path d="M46.6283 42.0653C47.7082 43.7499 48.2062 45.6949 48.0689 47.6912C47.932 49.6866 47.1712 51.5461 45.8707 53.0667C44.5707 54.5874 42.8522 55.6261 40.9012 56.0715C40.2141 56.2285 39.5215 56.3059 38.8321 56.3059C37.5637 56.3059 36.3067 56.0436 35.1215 55.5217C32.8016 54.5018 30.3122 53.9919 27.8224 53.9919V25.1903C32.8249 25.1903 37.4227 27.7048 40.1226 31.9162L46.6283 42.0653Z" fill="#AFCA0B"/>
</g>
<defs>
<clipPath id="clip0">
<rect width="60" height="60" fill="white"/>
</clipPath>
</defs>
</svg>
