<svg width="178" height="177" viewBox="0 0 178 177" fill="none" xmlns="http://www.w3.org/2000/svg">
<g clip-path="url(#clip0)">
<path d="M2.86082 115.573L27.8175 174.005L38.9908 169.272L14.0327 110.833C12.7498 107.828 9.26602 106.427 6.2498 107.704L6.00275 107.81C2.98289 109.088 1.57797 112.564 2.86082 115.572V115.573Z" fill="#DBB99F"/>
<path d="M27.8189 175.459C27.5339 175.458 27.2552 175.375 27.0173 175.218C26.7794 175.061 26.5927 174.838 26.4805 174.576L1.52525 116.144C1.14261 115.255 0.940421 114.298 0.930442 113.33C0.920463 112.362 1.10289 111.402 1.46712 110.505C2.20646 108.676 3.6143 107.244 5.43522 106.472L5.68227 106.368C9.4273 104.78 13.7743 106.529 15.3682 110.263L40.3277 168.702C40.4778 169.057 40.4822 169.458 40.3386 169.816C40.267 169.993 40.1611 170.155 40.027 170.292C39.8928 170.429 39.733 170.537 39.5568 170.612L28.3835 175.344C28.2049 175.419 28.0129 175.458 27.8189 175.459ZM4.19778 115.001L28.5848 172.102L37.0815 168.503L12.6957 111.405C11.7292 109.14 9.09087 108.08 6.81581 109.044L6.57021 109.149C6.02711 109.376 5.53464 109.709 5.12144 110.129C4.70824 110.548 4.38253 111.046 4.16326 111.592C3.94312 112.134 3.83278 112.715 3.83864 113.3C3.8445 113.885 3.96645 114.463 4.19742 115.001H4.19778Z" fill="#747474"/>
<path d="M32.6186 130.472H20.4121C15.0191 130.472 10.6462 135.141 10.6462 140.901V150.928C10.6462 152.062 10.7858 153.191 11.0582 154.287L15.8594 173.519C16.1446 174.66 17.1125 175.454 18.218 175.454H32.6172V130.472H32.6186Z" fill="#EDDCCF"/>
<path d="M77.7827 130.472H89.9893C95.382 130.472 99.7548 135.141 99.7548 140.901V150.928C99.7548 152.062 99.6156 153.191 99.3417 154.287L94.5405 173.519C94.2568 174.66 93.2889 175.454 92.1833 175.454H77.7827V130.472Z" fill="#EDDCCF"/>
<path d="M32.6187 176.907H18.2195C16.4454 176.907 14.8955 175.657 14.4501 173.869L9.64895 154.639C9.34621 153.425 9.19321 152.179 9.19336 150.928V140.901C9.19336 134.347 14.2256 129.017 20.4121 129.017H32.6183C33.4205 129.017 34.0715 129.668 34.0715 130.47V175.454C34.0715 176.256 33.4205 176.907 32.6183 176.907H32.6187ZM20.4121 131.925C15.8282 131.925 12.0995 135.951 12.0995 140.901V150.928C12.0995 151.944 12.2248 152.956 12.469 153.935L17.2698 173.166C17.3919 173.657 17.7821 174.001 18.2195 174.001H31.1654V131.923H20.4121V131.925Z" fill="#747474"/>
<path d="M92.1819 176.908H77.7827C77.3973 176.908 77.0277 176.755 76.7551 176.482C76.4826 176.21 76.3295 175.84 76.3295 175.455V130.47C76.3295 130.085 76.4826 129.715 76.7551 129.443C77.0277 129.17 77.3973 129.017 77.7827 129.017H89.9893C96.174 129.017 101.208 134.349 101.208 140.901V150.928C101.208 152.18 101.055 153.429 100.752 154.639L95.9513 173.869C95.5044 175.659 93.9545 176.908 92.1819 176.908ZM79.236 174.001H92.1819C92.6175 174.001 93.0077 173.658 93.1312 173.167L97.9309 153.935C98.176 152.952 98.2999 151.942 98.3001 150.928V140.901C98.3001 135.951 94.5718 131.925 89.9875 131.925H79.2345V174.001H79.236Z" fill="#747474"/>
<path d="M28.4064 88.5276H80.7728L87.0399 129.795C87.7838 134.693 88.1578 139.641 88.1585 144.595V165.727C88.1585 171.099 83.5336 175.454 77.8296 175.454H31.3496C25.6459 175.454 21.0224 171.099 21.0224 165.727V144.595C21.0224 139.644 21.3955 134.697 22.1407 129.795L28.4064 88.5276Z" fill="#EDDCCF"/>
<path d="M77.8282 176.908H31.3496C24.8539 176.908 19.5674 171.892 19.5674 165.727V144.596C19.5674 139.589 19.9492 134.535 20.7031 129.576L26.9702 88.309C27.0222 87.965 27.1959 87.6511 27.4597 87.4243C27.7235 87.1975 28.06 87.0728 28.4079 87.073H80.7728C81.1207 87.073 81.457 87.1977 81.7209 87.4245C81.9847 87.6513 82.1585 87.9651 82.2108 88.309L88.4779 129.576C89.2311 134.547 89.61 139.568 89.6115 144.596V165.727C89.6115 171.892 84.3253 176.908 77.8282 176.908ZM29.6551 89.981L23.5769 130.013C22.8448 134.84 22.4762 139.714 22.4742 144.596V165.727C22.4742 170.29 26.4562 174.001 31.35 174.001H77.8282C82.7231 174.001 86.7039 170.29 86.7039 165.727V144.596C86.7039 139.733 86.3333 134.827 85.6023 130.013L79.5227 89.981H29.6551Z" fill="#747474"/>
<path d="M19.3774 77.817L13.9785 74.7133C10.5968 72.7688 9.43896 68.4603 11.3918 65.0895L21.2194 48.1359C23.9515 43.4241 29.9988 41.8091 34.7288 44.5282L46.2498 51.1546L32.8868 74.2093C30.1547 78.9222 24.1077 80.5375 19.3774 77.817Z" fill="#A64F10" fill-opacity="0.4"/>
<path d="M89.8018 77.817L95.2007 74.7133C98.5824 72.7688 99.7406 68.4603 97.7874 65.0895L87.9598 48.1359C85.2277 43.4241 79.1808 41.8091 74.4504 44.5282L62.928 51.1546L76.2924 74.2093C79.026 78.9222 85.0719 80.5375 89.8018 77.817Z" fill="#A64F10" fill-opacity="0.4"/>
<path d="M24.3006 80.5859C22.3183 80.5872 20.3706 80.0663 18.6536 79.0756L13.2548 75.9718C11.2795 74.8365 9.86871 73.0017 9.28014 70.8048C8.69376 68.6133 8.99749 66.3244 10.1357 64.36L19.9623 47.4064C23.09 42.0123 30.0398 40.1557 35.4539 43.2682L46.9749 49.8929C47.1408 49.9883 47.2862 50.1155 47.4029 50.2672C47.5195 50.419 47.6051 50.5922 47.6547 50.7771C47.7043 50.9619 47.7169 51.1547 47.6918 51.3445C47.6667 51.5342 47.6045 51.7171 47.5086 51.8827L34.1442 74.9385C32.0435 78.559 28.2232 80.5859 24.3006 80.5859ZM20.101 76.5567C24.1316 78.8758 29.3019 77.4948 31.6278 73.4813L44.2613 51.6884L34.0036 45.7885C29.9759 43.4724 24.803 44.8519 22.4767 48.8654L12.6506 65.819C12.2803 66.4522 12.0397 67.1527 11.9429 67.8797C11.8461 68.6068 11.895 69.3458 12.0867 70.0538C12.2757 70.7656 12.6044 71.4328 13.0537 72.0163C13.503 72.5999 14.0638 73.0882 14.7037 73.453L20.101 76.5567Z" fill="#747474"/>
<path d="M84.8786 80.5859C80.9559 80.5859 77.1357 78.559 75.0364 74.9389L61.672 51.8842C61.5758 51.7187 61.5134 51.5358 61.4883 51.346C61.4632 51.1563 61.476 50.9634 61.5259 50.7787C61.575 50.5939 61.6602 50.4208 61.7766 50.2693C61.893 50.1177 62.0384 49.9908 62.2042 49.8958L73.7267 43.2697C79.1422 40.1572 86.0891 42.0137 89.2173 47.4078L99.0438 64.3614C100.183 66.3259 100.487 68.6148 99.8994 70.8063C99.3104 73.0018 97.8997 74.8365 95.9244 75.9733L90.527 79.0771C88.8091 80.0667 86.8611 80.587 84.8786 80.5859ZM89.8018 77.8171H89.8091H89.8018ZM64.9178 51.6884L77.5513 73.4813C79.8776 77.4934 85.049 78.8743 89.0781 76.5568L94.4769 73.453C95.1167 73.0879 95.6775 72.5992 96.1267 72.0154C96.5759 71.4316 96.9045 70.7643 97.0935 70.0524C97.2849 69.3447 97.3337 68.6059 97.237 67.8792C97.1404 67.1524 96.9001 66.4521 96.5304 65.8191L86.7038 48.8654C84.3776 44.8519 79.2062 43.471 75.177 45.7886L64.9178 51.6884Z" fill="#747474"/>
<path d="M51.7975 114.97H57.9934C70.7762 114.97 81.139 104.609 81.139 91.8243V66.3812C81.139 54.9441 71.8673 45.6724 60.4302 45.6724H49.3608C37.9219 45.6724 28.6505 54.9441 28.6505 66.3812V91.8243C28.6505 104.609 39.0133 114.97 51.7971 114.97L51.7975 114.97Z" fill="#EDDCCF"/>
<path d="M57.992 116.423H51.7975C38.2329 116.423 27.1973 105.387 27.1973 91.8242V66.3825C27.1973 54.1618 37.14 44.219 49.3608 44.219H60.4287C72.6495 44.219 82.5922 54.1618 82.5922 66.3825V91.8242C82.5922 105.387 71.5566 116.423 57.9924 116.423L57.992 116.423ZM49.3608 47.1251C38.7422 47.1251 30.1038 55.764 30.1038 66.3825V91.8242C30.1038 103.785 39.8365 113.518 51.7972 113.518H57.992C69.953 113.518 79.6857 103.785 79.6857 91.8246V66.3825C79.6857 55.764 71.0473 47.1255 60.4287 47.1255L49.3608 47.1251Z" fill="#747474"/>
<path d="M87.5467 99.4726V93.3871C87.5467 84.9967 80.7444 78.1934 72.3544 78.1934H36.8261C28.4347 78.1934 21.6324 84.9967 21.6324 93.3871V99.4726C21.6324 107.864 28.4347 114.666 36.8261 114.666H72.3544C80.7444 114.666 87.5467 107.864 87.5467 99.4726Z" fill="#EDDCCF"/>
<path d="M72.3545 116.119H36.8262C27.6471 116.119 20.1792 108.652 20.1792 99.4724V93.387C20.1792 84.2075 27.6471 76.74 36.8262 76.74H72.3545C81.5336 76.74 89.0015 84.2075 89.0015 93.387V99.4724C89 108.652 81.5321 116.119 72.3545 116.119ZM36.8262 79.6465C29.2493 79.6465 23.0857 85.8112 23.0857 93.387V99.4724C23.0857 107.049 29.2493 113.213 36.8262 113.213H72.3545C79.9314 113.213 86.095 107.049 86.095 99.4724V93.387C86.095 85.8112 79.9314 79.6465 72.3545 79.6465H36.8262Z" fill="#747474"/>
<path d="M69.3074 77.8085H69.7786C70.2247 77.8085 70.6665 77.7207 71.0787 77.55C71.4909 77.3793 71.8655 77.129 72.181 76.8135C72.4964 76.4981 72.7467 76.1235 72.9174 75.7113C73.0881 75.2991 73.176 74.8573 73.1759 74.4112V71.0334C73.176 70.5873 73.0882 70.1454 72.9175 69.7332C72.7468 69.3209 72.4966 68.9463 72.1811 68.6308C71.8656 68.3153 71.4911 68.065 71.0788 67.8943C70.6666 67.7235 70.2248 67.6357 69.7786 67.6357H69.3074C68.4062 67.6357 67.542 67.9937 66.9048 68.6309C66.2676 69.2681 65.9097 70.1323 65.9097 71.0334V74.4112C65.9096 74.8573 65.9975 75.2992 66.1682 75.7114C66.3389 76.1236 66.5892 76.4982 66.9047 76.8137C67.2203 77.1291 67.5948 77.3794 68.0071 77.5501C68.4193 77.7208 68.8612 77.8086 69.3074 77.8085Z" fill="#747474"/>
<path d="M38.7902 77.8085H39.2632C39.7094 77.8085 40.1512 77.7207 40.5634 77.55C40.9756 77.3793 41.3501 77.129 41.6656 76.8135C41.9811 76.4981 42.2314 76.1235 42.4021 75.7113C42.5728 75.2991 42.6606 74.8573 42.6606 74.4112V71.0334C42.6606 70.1324 42.3027 69.2682 41.6655 68.631C41.0284 67.9939 40.1643 67.6358 39.2632 67.6357H38.7902C37.8891 67.6357 37.0249 67.9937 36.3877 68.6309C35.7505 69.2681 35.3925 70.1323 35.3925 71.0334V74.4112C35.3925 74.8573 35.4803 75.2992 35.6511 75.7114C35.8218 76.1236 36.0721 76.4982 36.3876 76.8137C36.7031 77.1291 37.0777 77.3794 37.4899 77.5501C37.9022 77.7208 38.344 77.8086 38.7902 77.8085Z" fill="#747474"/>
<path d="M46.1843 116.376H38.4469C34.8904 116.376 32.0082 113.493 32.0082 109.938V94.9978C32.0082 90.0189 36.0446 85.9814 41.0227 85.9814H55.2007V107.362C55.2007 112.34 51.1643 116.376 46.1843 116.376Z" fill="#EFF3F3"/>
<path d="M64.2152 116.376H71.9527C75.5095 116.376 78.3916 113.493 78.3916 109.938V94.9978C78.3916 90.0189 74.3552 85.9814 69.3768 85.9814H55.2003V107.362C55.2003 112.34 59.2353 116.376 64.2152 116.376Z" fill="#EFF3F3"/>
<path d="M71.9527 117.83H64.2152C58.4422 117.83 53.746 113.134 53.746 107.362V85.9816C53.746 85.1797 54.3974 84.5283 55.1992 84.5283H69.3768C75.1487 84.5283 79.8449 89.2259 79.8449 94.9979V109.937C79.8463 114.289 76.3055 117.83 71.9527 117.83ZM56.6536 87.4348V107.362C56.6536 111.53 60.0458 114.923 64.2152 114.923H71.9527C74.7029 114.923 76.9398 112.686 76.9398 109.938V94.9979C76.9398 90.8271 73.548 87.4348 69.3768 87.4348H56.6536Z" fill="#747474"/>
<path d="M46.1843 117.83H38.4469C34.0958 117.83 30.555 114.289 30.555 109.938V94.9979C30.555 89.2259 35.2512 84.5283 41.0228 84.5283H55.2007C56.0025 84.5283 56.6539 85.1797 56.6539 85.9816V107.362C56.6539 113.134 51.9577 117.83 46.1843 117.83ZM41.0228 87.4348C36.8534 87.4348 33.46 90.8267 33.46 94.9979V109.937C33.46 112.686 35.698 114.923 38.4469 114.923H46.1843C50.3541 114.923 53.746 111.531 53.746 107.362V87.4348H41.0228Z" fill="#747474"/>
<path d="M61.3032 85.9814H49.0966C48.4223 85.9814 47.8759 86.5264 47.8759 87.1978V89.6287C47.8759 91.3076 49.2427 92.6686 50.9288 92.6686H59.4739C61.1583 92.6686 62.525 91.3076 62.525 89.6287V87.1978C62.5239 86.8746 62.3946 86.5651 62.1656 86.3371C61.9365 86.109 61.6264 85.9812 61.3032 85.9814Z" fill="#F9A7A7"/>
<path d="M59.4725 94.122H50.9274C48.4438 94.122 46.423 92.107 46.423 89.6303V87.1994C46.423 85.7276 47.622 84.5298 49.0967 84.5298H61.3032C62.7775 84.5298 63.9768 85.7276 63.9768 87.1994V89.6303C63.9768 92.107 61.9557 94.122 59.4725 94.122ZM49.3295 87.4348V89.6303C49.3295 90.5045 50.0474 91.2155 50.9288 91.2155H59.4725C60.3535 91.2155 61.0718 90.5045 61.0718 89.6303V87.4348H49.3295ZM61.3032 87.4348H61.3105H61.3032Z" fill="#747474"/>
<path d="M72.7403 176.908L51.1642 176.825L36.4475 176.908C34.5474 176.908 32.935 175.558 32.6055 173.699L29.763 157.661C29.4399 155.833 29.277 153.981 29.2761 152.125V129.258C29.2761 128.873 29.4292 128.503 29.7018 128.231C29.9743 127.958 30.3439 127.805 30.7294 127.805C31.1148 127.805 31.4844 127.958 31.757 128.231C32.0295 128.503 32.1826 128.873 32.1826 129.258V152.125C32.1826 153.806 32.3316 155.498 32.624 157.153L35.4666 173.191C35.507 173.419 35.6266 173.625 35.8042 173.773C35.9818 173.921 36.206 174.002 36.4374 174.001L51.1602 173.919L72.7475 174.001C73.2213 174.001 73.6304 173.661 73.7125 173.192L76.5551 157.154C76.8488 155.494 76.9965 153.811 76.9965 152.125V129.258C76.9965 128.873 77.1496 128.503 77.4221 128.231C77.6947 127.958 78.0643 127.805 78.4497 127.805C78.8352 127.805 79.2048 127.958 79.4773 128.231C79.7499 128.503 79.903 128.873 79.903 129.258V152.125C79.903 153.975 79.7395 155.838 79.4161 157.661L76.575 173.699C76.4157 174.6 75.9438 175.415 75.2424 176.002C74.5409 176.589 73.6549 176.91 72.7403 176.908Z" fill="#747474"/>
<path d="M54.3334 177C53.5316 177 52.8802 176.349 52.8802 175.547V142.122C52.8802 141.32 53.5316 140.669 54.3334 140.669C55.1353 140.669 55.7867 141.32 55.7867 142.122V175.547C55.7867 176.35 55.1367 177 54.3334 177Z" fill="#747474"/>
<path d="M149.057 134.843L130.491 175.304L122.956 171.99L141.52 131.531C142.461 129.481 144.911 128.56 146.992 129.476C149.073 130.391 149.998 132.794 149.057 134.843Z" fill="#F9CFCF"/>
<path d="M130.491 176.757C130.296 176.757 130.097 176.716 129.906 176.634L122.371 173.322C122.194 173.244 122.035 173.132 121.902 172.992C121.769 172.852 121.665 172.688 121.597 172.507C121.528 172.327 121.496 172.135 121.503 171.942C121.509 171.749 121.554 171.56 121.635 171.384L140.199 130.924C141.467 128.163 144.776 126.914 147.576 128.144C148.948 128.747 149.994 129.845 150.52 131.233C150.78 131.909 150.901 132.631 150.876 133.355C150.852 134.079 150.682 134.791 150.377 135.449L131.811 175.91C131.696 176.163 131.51 176.378 131.276 176.528C131.042 176.678 130.769 176.758 130.491 176.757ZM124.893 171.255L129.768 173.398L147.736 134.237C147.879 133.93 147.958 133.597 147.97 133.258C147.982 132.92 147.926 132.582 147.805 132.266C147.682 131.941 147.495 131.645 147.254 131.395C147.014 131.144 146.726 130.944 146.408 130.807C145.051 130.209 143.451 130.807 142.841 132.138L124.893 171.255Z" fill="#747474"/>
<path d="M144.778 153.459C144.549 152.036 144.155 150.645 143.605 149.313L135.846 121.907H105.629L97.8684 149.313C97.319 150.645 96.9252 152.037 96.6949 153.46L96.5798 154.308C96.4973 155.02 96.4557 155.736 96.4551 156.453C96.4551 166.979 105.152 175.512 115.879 175.512H125.592C136.321 175.512 145.018 166.979 145.018 156.453C145.018 155.727 144.973 155.012 144.892 154.308L144.778 153.459Z" fill="#EFF3F3"/>
<path d="M125.592 176.964H115.879C104.367 176.964 95.0019 167.762 95.0019 156.453C95.0019 155.706 95.0473 154.93 95.1363 154.144L95.2544 153.265C95.4973 151.747 95.913 150.262 96.4933 148.839L104.229 121.512C104.315 121.208 104.499 120.94 104.751 120.749C105.003 120.558 105.311 120.455 105.627 120.455H135.845C136.161 120.455 136.469 120.558 136.721 120.749C136.973 120.94 137.157 121.208 137.242 121.512L144.98 148.839C145.556 150.251 145.969 151.724 146.212 153.23C146.213 153.241 146.216 153.252 146.217 153.265L146.332 154.114C146.423 154.89 146.469 155.671 146.472 156.453C146.472 167.762 137.105 176.964 125.592 176.964H125.592ZM106.726 123.36L99.2665 149.709C99.2505 149.762 99.2325 149.815 99.2123 149.868C98.7046 151.096 98.3413 152.378 98.1297 153.69L98.0207 154.503C97.9467 155.15 97.9091 155.801 97.908 156.453C97.908 166.16 105.971 174.058 115.879 174.058H125.592C135.503 174.058 143.565 166.16 143.565 156.453C143.565 155.813 143.525 155.147 143.449 154.473L143.341 153.673C143.128 152.367 142.766 151.09 142.261 149.868C142.239 149.816 142.221 149.763 142.207 149.709L134.746 123.36H106.726Z" fill="#747474"/>
<path d="M146.707 104.74L126.634 93.3699L143.805 84.1581C144.893 83.5731 146.226 84.3281 146.254 85.5459L146.707 104.74Z" fill="#EFF3F3"/>
<path d="M134.705 93.4606L142.397 89.3352L142.6 97.9327L134.705 93.4606Z" fill="#F9CFCF"/>
<path d="M146.707 106.194C146.46 106.194 146.213 106.131 145.992 106.005L125.919 94.6344C125.692 94.5063 125.504 94.3198 125.375 94.0943C125.245 93.8689 125.178 93.6128 125.181 93.3527C125.184 93.0928 125.257 92.8386 125.392 92.6165C125.527 92.3944 125.719 92.2125 125.948 92.0898L143.118 82.8776C143.589 82.6225 144.118 82.4934 144.654 82.5029C145.19 82.5124 145.714 82.6601 146.176 82.9318C147.11 83.4753 147.682 84.4388 147.706 85.5117L148.16 104.706C148.165 104.9 148.131 105.093 148.06 105.273C147.989 105.453 147.882 105.618 147.747 105.756C147.612 105.895 147.45 106.005 147.271 106.08C147.092 106.155 146.901 106.194 146.707 106.194H146.707ZM129.644 93.4039L145.194 102.213L144.801 85.58C144.801 85.5556 144.798 85.492 144.713 85.4419C144.679 85.4219 144.641 85.4111 144.603 85.4105C144.564 85.4098 144.525 85.4194 144.491 85.4383L129.644 93.4039Z" fill="#747474"/>
<path d="M94.7647 104.74L114.838 93.3699L97.6668 84.1581C96.5783 83.5731 95.2472 84.3281 95.2174 85.5459L94.7647 104.74Z" fill="#EFF3F3"/>
<path d="M99.0761 89.335L106.767 93.4607L98.8719 97.9328L99.0761 89.335Z" fill="#F9CFCF"/>
<path d="M94.7647 106.194C94.5016 106.194 94.2435 106.122 94.0181 105.986C93.7974 105.855 93.6156 105.667 93.4915 105.442C93.3673 105.217 93.3052 104.963 93.3114 104.706L93.7656 85.5102C93.791 84.4388 94.3647 83.4738 95.2969 82.9303C95.7587 82.6589 96.2829 82.5114 96.8185 82.5022C97.3541 82.4929 97.8829 82.6223 98.3538 82.8776L115.525 92.0883C115.754 92.2111 115.946 92.3932 116.081 92.6156C116.216 92.838 116.288 93.0926 116.291 93.3527C116.295 93.6125 116.228 93.8685 116.098 94.0938C115.969 94.3191 115.781 94.5053 115.554 94.633L95.4815 106.004C95.2633 106.128 95.0161 106.194 94.7647 106.194ZM96.8737 85.411C96.8337 85.411 96.7944 85.4218 96.76 85.4422C96.6735 85.492 96.6721 85.5556 96.6721 85.5799L96.279 102.212L111.828 93.4039L96.9816 85.4379C96.9483 85.4205 96.9113 85.4113 96.8737 85.411Z" fill="#747474"/>
<path d="M126.523 131.678H114.948C103.287 131.678 93.8324 122.223 93.8324 110.562C93.8324 98.8991 103.287 89.446 114.948 89.446H126.523C138.185 89.446 147.639 98.8991 147.639 110.562C147.639 122.223 138.186 131.678 126.524 131.678H126.523Z" fill="#EFF3F3"/>
<path d="M135.603 120.543C133.693 113.654 127.63 108.913 120.736 108.913C113.841 108.913 107.78 113.654 105.869 120.543L104.042 127.125C107.291 129.094 111.111 130.232 115.201 130.232H126.269C130.359 130.232 134.181 129.095 137.428 127.125L135.603 120.543Z" fill="#F9CFCF"/>
<path d="M110.65 112.773C110.104 112.773 109.58 112.556 109.194 112.169C108.808 111.783 108.591 111.26 108.591 110.714V107.566C108.591 107.02 108.807 106.496 109.193 106.11C109.58 105.724 110.103 105.507 110.649 105.507C111.195 105.507 111.719 105.724 112.105 106.11C112.491 106.496 112.708 107.02 112.708 107.566V110.714C112.708 110.984 112.655 111.252 112.551 111.502C112.448 111.751 112.296 111.978 112.105 112.17C111.914 112.361 111.687 112.513 111.438 112.616C111.188 112.72 110.92 112.773 110.65 112.773Z" fill="#747474"/>
<path d="M131.237 112.773C130.966 112.772 130.699 112.719 130.449 112.616C130.199 112.512 129.972 112.36 129.781 112.169C129.59 111.978 129.438 111.751 129.335 111.501C129.232 111.251 129.179 110.984 129.179 110.713V107.566C129.179 107.02 129.396 106.496 129.781 106.11C130.167 105.724 130.691 105.507 131.237 105.506C131.507 105.506 131.775 105.56 132.025 105.663C132.274 105.766 132.502 105.918 132.693 106.109C132.884 106.301 133.036 106.528 133.139 106.777C133.243 107.027 133.296 107.295 133.296 107.566V110.713C133.296 110.984 133.243 111.252 133.139 111.502C133.036 111.751 132.884 111.979 132.693 112.17C132.502 112.361 132.275 112.513 132.025 112.616C131.775 112.72 131.507 112.773 131.237 112.773Z" fill="#747474"/>
<path d="M123.634 120.543C122.464 120.543 121.359 120.163 120.53 119.508C119.7 120.163 118.594 120.543 117.425 120.543C114.913 120.543 112.868 118.797 112.868 116.652C112.868 115.85 113.519 115.199 114.321 115.199C115.123 115.199 115.774 115.85 115.774 116.652C115.774 117.117 116.481 117.637 117.425 117.637C118.193 117.637 118.755 117.302 118.972 116.97C119.317 116.445 119.9 116.131 120.53 116.131C121.161 116.131 121.744 116.445 122.088 116.97C122.306 117.302 122.869 117.637 123.634 117.637C124.579 117.637 125.286 117.117 125.286 116.652C125.286 116.267 125.439 115.897 125.711 115.624C125.984 115.352 126.354 115.199 126.739 115.199C127.124 115.199 127.494 115.352 127.767 115.624C128.039 115.897 128.192 116.267 128.192 116.652C128.191 118.797 126.146 120.543 123.634 120.543V120.543Z" fill="#747474"/>
<path d="M126.523 133.131H114.948C102.504 133.131 92.3792 123.005 92.3792 110.561C92.3792 98.1161 102.504 87.991 114.948 87.991H126.523C138.968 87.991 149.093 98.1158 149.093 110.56C149.093 123.005 138.968 133.131 126.524 133.131L126.523 133.131ZM114.95 90.8971C104.107 90.8971 95.2857 99.7191 95.2857 110.561C95.2857 121.403 104.107 130.225 114.95 130.225H126.523C137.366 130.225 146.188 121.403 146.188 110.561C146.188 99.7191 137.366 90.8971 126.523 90.8971H114.95Z" fill="#747474"/>
<path d="M153.435 117.09H141.017C140.216 117.09 139.564 116.439 139.564 115.637C139.564 114.835 140.216 114.184 141.017 114.184H153.435C154.237 114.184 154.889 114.835 154.889 115.637C154.889 116.439 154.237 117.09 153.435 117.09Z" fill="#747474"/>
<path d="M141.023 113.639C140.702 113.639 140.39 113.533 140.136 113.337C139.881 113.141 139.699 112.867 139.617 112.557C139.535 112.246 139.558 111.917 139.682 111.622C139.807 111.326 140.026 111.079 140.305 110.921L151.058 104.83C151.224 104.736 151.407 104.675 151.597 104.652C151.786 104.628 151.978 104.642 152.162 104.693C152.346 104.744 152.519 104.831 152.669 104.948C152.82 105.066 152.946 105.212 153.04 105.378C153.134 105.544 153.194 105.727 153.217 105.916C153.241 106.106 153.226 106.298 153.175 106.482C153.124 106.665 153.038 106.838 152.92 106.988C152.803 107.138 152.656 107.264 152.49 107.358L141.737 113.45C141.519 113.574 141.273 113.639 141.023 113.639V113.639Z" fill="#747474"/>
<path d="M151.773 126.634C151.523 126.634 151.276 126.569 151.058 126.445L140.305 120.355C139.976 120.162 139.735 119.847 139.636 119.478C139.537 119.11 139.586 118.717 139.774 118.384C139.963 118.052 140.274 117.807 140.641 117.703C141.008 117.598 141.402 117.642 141.737 117.826L152.49 123.916C152.77 124.074 152.99 124.32 153.115 124.616C153.24 124.912 153.263 125.241 153.181 125.552C153.099 125.863 152.917 126.137 152.662 126.333C152.407 126.529 152.095 126.635 151.773 126.634V126.634Z" fill="#747474"/>
<path d="M100.456 117.09H88.039C87.6536 117.09 87.284 116.937 87.0114 116.664C86.7389 116.392 86.5858 116.022 86.5858 115.637C86.5858 115.251 86.7389 114.882 87.0114 114.609C87.284 114.337 87.6536 114.184 88.039 114.184H100.456C101.257 114.184 101.909 114.835 101.909 115.637C101.909 116.439 101.257 117.09 100.456 117.09Z" fill="#747474"/>
<path d="M89.6983 126.634C89.1933 126.634 88.7006 126.369 88.434 125.896C88.3398 125.73 88.2793 125.547 88.2558 125.358C88.2324 125.168 88.2465 124.976 88.2974 124.792C88.3482 124.608 88.4348 124.436 88.5522 124.286C88.6695 124.135 88.8154 124.009 88.9815 123.915L99.7348 117.824C100.069 117.644 100.462 117.601 100.827 117.707C101.192 117.812 101.502 118.056 101.689 118.387C101.877 118.718 101.927 119.109 101.829 119.477C101.731 119.844 101.494 120.159 101.167 120.353L90.4137 126.444C90.188 126.573 89.941 126.634 89.6979 126.634H89.6983Z" fill="#747474"/>
<path d="M100.45 113.639C100.199 113.638 99.9527 113.573 99.7344 113.45L88.9818 107.359C88.6465 107.169 88.4004 106.853 88.2978 106.482C88.1951 106.11 88.2442 105.713 88.4343 105.378C88.6244 105.042 88.9399 104.796 89.3115 104.694C89.683 104.591 90.0801 104.64 90.4154 104.83L101.168 110.921C101.448 111.079 101.667 111.326 101.791 111.622C101.916 111.917 101.939 112.246 101.857 112.557C101.775 112.867 101.592 113.141 101.338 113.337C101.084 113.533 100.772 113.639 100.451 113.639H100.45Z" fill="#747474"/>
<path d="M122.448 112.404L124.16 110.725C124.514 110.377 124.749 109.926 124.83 109.437C123.481 109.178 122.11 109.046 120.736 109.045C119.344 109.045 117.974 109.183 116.642 109.437C116.722 109.927 116.957 110.378 117.313 110.725L119.024 112.404C119.969 113.332 121.502 113.332 122.448 112.404V112.404Z" fill="#F9A7A7"/>
<path d="M128.97 176.965H124.047C123.754 176.965 123.459 176.938 123.173 176.885C121.741 176.621 120.7 175.354 120.7 173.87V154.587C120.7 154.577 120.7 154.549 120.669 154.52C120.629 154.485 120.583 154.489 120.567 154.491C120.529 154.493 120.47 154.568 120.47 154.654V173.888C120.47 175.577 119.115 176.956 117.449 176.965H112.503C110.214 176.965 108.245 175.354 107.821 173.134L107.179 169.772C102.056 149.84 103.252 143.78 103.305 143.53C103.345 143.343 103.422 143.166 103.53 143.009C103.639 142.852 103.777 142.718 103.937 142.615C104.098 142.511 104.277 142.44 104.465 142.406C104.653 142.372 104.846 142.375 105.032 142.416C105.407 142.496 105.734 142.721 105.943 143.042C106.153 143.362 106.227 143.752 106.151 144.127C106.127 144.259 105.146 150.197 110.005 169.092C110.012 169.122 110.021 169.152 110.025 169.182L110.676 172.589C110.84 173.441 111.607 174.058 112.504 174.058H117.424C117.5 174.058 117.564 173.972 117.564 173.888V154.654C117.564 153.084 118.763 151.741 120.294 151.597C120.715 151.557 121.14 151.605 121.542 151.739C121.943 151.872 122.312 152.088 122.626 152.372C122.934 152.652 123.18 152.994 123.349 153.375C123.518 153.756 123.606 154.169 123.607 154.585V173.869C123.607 173.949 123.656 174.018 123.697 174.025C123.812 174.047 123.929 174.058 124.046 174.058H128.968C129.864 174.058 130.633 173.439 130.796 172.588L131.446 169.182C131.453 169.151 131.459 169.121 131.466 169.092C136.358 150.075 135.333 144.183 135.322 144.126C135.172 143.344 135.678 142.579 136.459 142.422C136.832 142.343 137.222 142.416 137.542 142.624C137.862 142.832 138.086 143.158 138.166 143.532C138.22 143.78 139.416 149.841 134.293 169.772L133.65 173.134C133.226 175.354 131.257 176.965 128.97 176.965H128.97Z" fill="#747474"/>
<path d="M100.898 42.8199L119.678 63.8096C123.963 68.598 129.586 70.9763 135.2 70.9494C140.815 70.9763 146.437 68.598 150.722 63.8096L169.501 42.8196C178.021 33.2972 178.021 17.8575 169.501 8.33469C160.981 -1.18773 147.168 -1.18773 138.649 8.33469L137.126 10.0364C136.062 11.2256 134.337 11.2256 133.273 10.0364L131.75 8.33469C123.231 -1.18773 109.418 -1.18773 100.897 8.33469C92.3791 17.8575 92.3791 33.2968 100.898 42.8196V42.8199Z" fill="white"/>
<path d="M153.452 29.8156H145.372C144.712 29.8157 144.079 29.5537 143.612 29.0872C143.145 28.6207 142.883 27.9879 142.882 27.328V19.2458C142.883 18.9189 142.818 18.5953 142.693 18.2933C142.568 17.9914 142.385 17.7169 142.154 17.4858C141.923 17.2546 141.649 17.0712 141.347 16.9461C141.045 16.8209 140.721 16.7564 140.395 16.7563H130.007C129.347 16.7565 128.714 17.0189 128.247 17.4857C127.781 17.9525 127.518 18.5856 127.518 19.2458V27.3266C127.518 27.6535 127.454 27.9772 127.329 28.2792C127.204 28.5812 127.02 28.8557 126.789 29.0868C126.558 29.318 126.284 29.5013 125.982 29.6263C125.68 29.7514 125.356 29.8157 125.029 29.8156H116.948C116.621 29.8155 116.298 29.8798 115.996 30.0048C115.694 30.1298 115.419 30.313 115.188 30.544C114.957 30.775 114.774 31.0493 114.648 31.3512C114.523 31.6532 114.459 31.9768 114.459 32.3036V42.6907C114.459 43.3508 114.721 43.9839 115.188 44.4506C115.655 44.9174 116.288 45.1796 116.948 45.1797H125.029C125.356 45.1796 125.679 45.2439 125.981 45.3689C126.283 45.4939 126.558 45.6771 126.789 45.9081C127.02 46.1392 127.203 46.4135 127.329 46.7154C127.454 47.0173 127.518 47.3409 127.518 47.6677V55.7514C127.519 56.4114 127.781 57.0442 128.248 57.5108C128.714 57.9774 129.347 58.2394 130.007 58.2393H140.393C140.72 58.2394 141.044 58.1752 141.345 58.0502C141.647 57.9252 141.922 57.742 142.153 57.5109C142.384 57.2799 142.568 57.0056 142.693 56.7037C142.818 56.4018 142.882 56.0782 142.882 55.7514V47.6691C142.882 47.0094 143.145 46.3766 143.611 45.91C144.078 45.4434 144.71 45.1813 145.37 45.1812H153.452C154.112 45.181 154.745 44.9186 155.212 44.4519C155.678 43.9851 155.94 43.3521 155.94 42.6921V32.305C155.941 31.9781 155.877 31.6544 155.752 31.3523C155.627 31.0501 155.444 30.7756 155.213 30.5444C154.981 30.3132 154.707 30.1298 154.405 30.0047C154.103 29.8797 153.779 29.8154 153.452 29.8156Z" fill="#F9A7A7"/>
<path d="M153.452 29.8156H145.372C144.712 29.8157 144.079 29.5537 143.612 29.0872C143.145 28.6207 142.883 27.9879 142.882 27.328V19.2458C142.883 18.9189 142.818 18.5953 142.693 18.2933C142.568 17.9914 142.385 17.7169 142.154 17.4858C141.923 17.2546 141.649 17.0712 141.347 16.9461C141.045 16.8209 140.721 16.7564 140.395 16.7563H130.007C129.347 16.7565 128.714 17.0189 128.247 17.4857C127.781 17.9525 127.518 18.5856 127.518 19.2458V27.3266C127.518 27.6535 127.454 27.9772 127.329 28.2792C127.204 28.5813 127.02 28.8557 126.789 29.0868C126.558 29.318 126.284 29.5013 125.982 29.6263C125.68 29.7514 125.356 29.8157 125.029 29.8156H116.948C116.621 29.8155 116.298 29.8798 115.996 30.0048C115.694 30.1298 115.419 30.313 115.188 30.544C114.957 30.7751 114.774 31.0493 114.648 31.3513C114.523 31.6532 114.459 31.9768 114.459 32.3036V42.6907C114.459 43.3508 114.721 43.9839 115.188 44.4506C115.655 44.9174 116.288 45.1796 116.948 45.1797H125.029C125.356 45.1796 125.679 45.2439 125.981 45.3689C126.283 45.4939 126.558 45.6771 126.789 45.9081C127.02 46.1392 127.203 46.4135 127.329 46.7154C127.454 47.0173 127.518 47.3409 127.518 47.6677V55.7514C127.519 56.4114 127.781 57.0443 128.248 57.5108C128.714 57.9774 129.347 58.2395 130.007 58.2394H140.393C140.72 58.2395 141.044 58.1752 141.345 58.0502C141.647 57.9252 141.922 57.742 142.153 57.511C142.384 57.2799 142.568 57.0056 142.693 56.7037C142.818 56.4018 142.882 56.0782 142.882 55.7514V47.6691C142.882 47.0094 143.145 46.3766 143.611 45.91C144.078 45.4435 144.71 45.1813 145.37 45.1812H153.452C154.112 45.181 154.745 44.9187 155.212 44.4519C155.678 43.9851 155.94 43.3521 155.94 42.6921V32.305C155.941 31.9781 155.877 31.6544 155.752 31.3523C155.627 31.0501 155.444 30.7756 155.213 30.5444C154.981 30.3132 154.707 30.1298 154.405 30.0047C154.103 29.8797 153.779 29.8154 153.452 29.8156Z" fill="#AFCA0B"/>
<path d="M135.298 72.143H135.088C128.836 72.143 122.96 69.4595 118.545 64.5773L99.6977 43.7435C90.6745 33.7695 90.6745 17.5415 99.6977 7.56707C104.112 2.68778 109.993 0 116.257 0C122.521 0 128.401 2.6867 132.816 7.56707L134.345 9.25611C134.818 9.7811 135.581 9.7811 136.055 9.25611L137.583 7.56707C141.996 2.68778 147.878 0 154.142 0C160.406 0 166.287 2.6867 170.701 7.56707C179.724 17.5411 179.724 33.771 170.701 43.7435L151.854 64.5773C147.44 69.4581 141.564 72.1415 135.298 72.143H135.298ZM135.193 69.235H135.284C140.732 69.235 145.843 66.8905 149.7 62.6274L168.547 41.7936C176.598 32.8939 176.598 18.4156 168.547 9.51697C164.691 5.25386 159.576 2.90505 154.144 2.90505C148.712 2.90505 143.596 5.25241 139.74 9.51552L138.212 11.206C137.417 12.0845 136.347 12.5684 135.202 12.5684C134.055 12.5684 132.986 12.0845 132.19 11.206L130.662 9.51552C126.806 5.25241 121.69 2.90505 116.258 2.90505C110.826 2.90505 105.711 5.25241 101.855 9.51552C93.8041 18.4156 93.8041 32.8939 101.855 41.7936L120.702 62.6274C124.559 66.8905 129.671 69.235 135.104 69.235C135.133 69.2365 135.164 69.235 135.193 69.235H135.193Z" fill="#747474"/>
<path d="M135.298 72.143H135.088C128.836 72.143 122.96 69.4595 118.545 64.5773L99.6977 43.7435C90.6745 33.7695 90.6745 17.5415 99.6977 7.56707C104.112 2.68778 109.993 0 116.257 0C122.521 0 128.401 2.6867 132.816 7.56707L134.345 9.25611C134.818 9.7811 135.581 9.7811 136.055 9.25611L137.583 7.56707C141.996 2.68778 147.878 0 154.142 0C160.406 0 166.287 2.6867 170.701 7.56707C179.724 17.5411 179.724 33.771 170.701 43.7435L151.854 64.5773C147.44 69.4581 141.564 72.1415 135.298 72.143H135.298ZM135.193 69.235H135.284C140.732 69.235 145.843 66.8905 149.7 62.6274L168.547 41.7936C176.598 32.8939 176.598 18.4156 168.547 9.51697C164.691 5.25386 159.576 2.90505 154.144 2.90505C148.712 2.90505 143.596 5.25241 139.74 9.51552L138.212 11.206C137.417 12.0845 136.347 12.5684 135.202 12.5684C134.055 12.5684 132.986 12.0845 132.19 11.206L130.662 9.51552C126.806 5.25241 121.69 2.90505 116.258 2.90505C110.826 2.90505 105.711 5.25241 101.855 9.51552C93.8041 18.4156 93.8041 32.8939 101.855 41.7936L120.702 62.6274C124.559 66.8905 129.671 69.235 135.104 69.235C135.133 69.2365 135.164 69.235 135.193 69.235H135.193Z" fill="#747474"/>
<path d="M140.393 59.6924H130.007C127.833 59.6924 126.065 57.9245 126.065 55.7515V47.6693C126.065 47.3948 125.955 47.1317 125.761 46.9377C125.567 46.7438 125.303 46.6348 125.029 46.6346H116.947C114.774 46.6346 113.005 44.8652 113.005 42.6923V32.3052C113.005 30.1311 114.774 28.3625 116.947 28.3625H125.029C125.304 28.3622 125.567 28.253 125.761 28.0588C125.955 27.8646 126.065 27.6013 126.065 27.3267V19.2459C126.065 17.0715 127.833 15.3032 130.007 15.3032H140.393C142.567 15.3032 144.336 17.0715 144.336 19.2459V27.3267C144.336 27.6011 144.445 27.8643 144.639 28.0585C144.833 28.2527 145.096 28.362 145.37 28.3625H153.452C155.627 28.3625 157.394 30.1322 157.394 32.3052V42.6908C157.394 44.8649 155.625 46.6331 153.452 46.6331H145.37C145.096 46.6336 144.833 46.743 144.639 46.9372C144.445 47.1315 144.336 47.3948 144.336 47.6693V55.7515C144.336 57.9241 142.567 59.6927 140.393 59.6927V59.6924ZM116.947 31.269C116.672 31.2696 116.409 31.379 116.215 31.5732C116.021 31.7674 115.912 32.0307 115.912 32.3052V42.6908C115.912 42.9652 116.021 43.2284 116.215 43.4225C116.409 43.6167 116.672 43.726 116.947 43.7266H125.029C127.203 43.7266 128.972 45.4952 128.972 47.6693V55.7515C128.972 56.026 129.081 56.2891 129.275 56.4831C129.47 56.6771 129.733 56.7861 130.007 56.7862H140.393C140.668 56.786 140.931 56.677 141.125 56.4831C141.319 56.2891 141.429 56.026 141.429 55.7515V47.6693C141.429 45.4952 143.197 43.7281 145.37 43.7281H153.452C153.727 43.7275 153.99 43.6181 154.184 43.424C154.378 43.2298 154.487 42.9667 154.487 42.6923V32.3052C154.487 32.0307 154.378 31.7674 154.184 31.5732C153.99 31.379 153.727 31.2696 153.452 31.269H145.37C143.196 31.269 141.429 29.5007 141.429 27.3267V19.2459C141.429 18.9712 141.32 18.7078 141.125 18.5135C140.931 18.3193 140.668 18.21 140.393 18.2097H130.007C129.733 18.2098 129.469 18.319 129.275 18.5133C129.081 18.7076 128.972 18.9711 128.972 19.2459V27.3267C128.972 29.5007 127.203 31.269 125.029 31.269H116.947Z" fill="#747474"/>
<path d="M140.393 59.6924H130.007C127.833 59.6924 126.065 57.9245 126.065 55.7515V47.6693C126.065 47.3948 125.955 47.1317 125.761 46.9377C125.567 46.7438 125.303 46.6348 125.029 46.6346H116.947C114.774 46.6346 113.005 44.8652 113.005 42.6923V32.3052C113.005 30.1311 114.774 28.3625 116.947 28.3625H125.029C125.304 28.3622 125.567 28.253 125.761 28.0588C125.955 27.8646 126.065 27.6013 126.065 27.3267V19.2459C126.065 17.0715 127.833 15.3032 130.007 15.3032H140.393C142.567 15.3032 144.336 17.0715 144.336 19.2459V27.3267C144.336 27.6011 144.445 27.8643 144.639 28.0585C144.833 28.2527 145.096 28.362 145.37 28.3625H153.452C155.627 28.3625 157.394 30.1322 157.394 32.3052V42.6908C157.394 44.8649 155.625 46.6331 153.452 46.6331H145.37C145.096 46.6336 144.833 46.743 144.639 46.9372C144.445 47.1315 144.336 47.3948 144.336 47.6693V55.7515C144.336 57.9241 142.567 59.6927 140.393 59.6927V59.6924ZM116.947 31.269C116.672 31.2696 116.409 31.379 116.215 31.5732C116.021 31.7674 115.912 32.0307 115.912 32.3052V42.6908C115.912 42.9652 116.021 43.2284 116.215 43.4225C116.409 43.6167 116.672 43.726 116.947 43.7266H125.029C127.203 43.7266 128.972 45.4952 128.972 47.6693V55.7515C128.972 56.026 129.081 56.2891 129.275 56.4831C129.47 56.6771 129.733 56.7861 130.007 56.7862H140.393C140.668 56.786 140.931 56.677 141.125 56.4831C141.319 56.2891 141.429 56.026 141.429 55.7515V47.6693C141.429 45.4952 143.197 43.7281 145.37 43.7281H153.452C153.727 43.7275 153.99 43.6181 154.184 43.424C154.378 43.2298 154.487 42.9667 154.487 42.6923V32.3052C154.487 32.0307 154.378 31.7674 154.184 31.5732C153.99 31.379 153.727 31.2696 153.452 31.269H145.37C143.196 31.269 141.429 29.5007 141.429 27.3267V19.2459C141.429 18.9712 141.32 18.7078 141.125 18.5135C140.931 18.3193 140.668 18.21 140.393 18.2097H130.007C129.733 18.2098 129.469 18.319 129.275 18.5133C129.081 18.7076 128.972 18.9711 128.972 19.2459V27.3267C128.972 29.5007 127.203 31.269 125.029 31.269H116.947Z" fill="#747474"/>
</g>
<defs>
<clipPath id="clip0">
<rect x="0.5" width="177" height="177" fill="white"/>
</clipPath>
</defs>
</svg>
