<svg width="32" height="32" viewBox="0 0 32 32" fill="none" xmlns="http://www.w3.org/2000/svg">
<path d="M30.2147 24.1436L24.1418 20.0936C23.3711 19.5838 22.3381 19.7516 21.7683 20.4791L19.9993 22.7536C19.772 23.0533 19.3587 23.1403 19.0298 22.9576L18.6933 22.7721C17.5779 22.1641 16.1899 21.4071 13.3935 18.6096C10.597 15.8122 9.83851 14.4232 9.23049 13.3097L9.04598 12.9733C8.86077 12.6444 8.94608 12.2294 9.24596 12.0003L11.5189 10.2318C12.2461 9.662 12.4141 8.62924 11.9049 7.85833L7.85497 1.78543C7.33308 1.0004 6.28603 0.764739 5.47809 1.25041L2.93862 2.77588C2.1407 3.24497 1.5553 4.00469 1.30517 4.89582C0.390714 8.22776 1.07865 13.9782 9.54953 22.45C16.2879 29.1879 21.3044 30.9999 24.7523 30.9999C25.5458 31.0033 26.3362 30.9001 27.1023 30.6929C27.9936 30.4431 28.7534 29.8576 29.2222 29.0595L30.7492 26.5215C31.2356 25.7134 31.0001 24.6657 30.2147 24.1436ZM29.8877 26.0085L28.3642 28.548C28.0276 29.1241 27.4811 29.5476 26.8392 29.73C23.7633 30.5745 18.3894 29.875 10.257 21.7426C2.12459 13.6102 1.42517 8.23678 2.26967 5.16037C2.45224 4.51772 2.87634 3.97053 3.45312 3.63338L5.9926 2.10991C6.34316 1.89898 6.7976 2.00122 7.02406 2.34188L9.22405 5.64482L11.0705 8.41426C11.2917 8.74865 11.219 9.19683 10.9036 9.44427L8.63009 11.2127C7.93823 11.7417 7.74065 12.699 8.16662 13.4587L8.34715 13.7867C8.98616 14.9587 9.78062 16.4166 12.6811 19.3166C15.5815 22.2166 17.039 23.0111 18.2105 23.65L18.539 23.831C19.2986 24.2569 20.2559 24.0594 20.7849 23.3676L22.5534 21.0941C22.8009 20.7788 23.2489 20.7062 23.5834 20.9271L29.6558 24.977C29.9967 25.2033 30.0989 25.658 29.8877 26.0085Z" fill="#AFCA0B" stroke="#AFCA0B" stroke-width="0.5"/>
<path d="M18 6.00141C22.6921 6.00662 26.4946 9.80912 26.4999 14.5013C26.4999 14.7774 26.7237 15.0013 26.9998 15.0013C27.276 15.0013 27.4998 14.7774 27.4998 14.5013C27.494 9.25706 23.2442 5.00721 18 5.00146C17.7238 5.00146 17.5 5.22529 17.5 5.50144C17.5 5.77759 17.7238 6.00141 18 6.00141Z" fill="#AFCA0B" stroke="#AFCA0B" stroke-width="0.5"/>
<path d="M18 9.00135C21.036 9.00492 23.4963 11.4652 23.4999 14.5013C23.4999 14.7774 23.7238 15.0013 23.9999 15.0013C24.276 15.0013 24.4998 14.7774 24.4998 14.5013C24.4957 10.9132 21.588 8.00551 18 8.0014C17.7238 8.0014 17.5 8.22523 17.5 8.50138C17.5 8.77752 17.7238 9.00135 18 9.00135Z" fill="#AFCA0B" stroke="#AFCA0B" stroke-width="0.5"/>
<path d="M18 12.0013C19.38 12.0029 20.4983 13.1212 20.5 14.5013C20.5 14.7774 20.7238 15.0012 20.9999 15.0012C21.276 15.0012 21.4999 14.7774 21.4999 14.5013C21.4977 12.5692 19.932 11.0035 18 11.0013C17.7238 11.0013 17.5 11.2252 17.5 11.5013C17.5 11.7775 17.7238 12.0013 18 12.0013Z" fill="#AFCA0B" stroke="#AFCA0B" stroke-width="0.5"/>
</svg>
