<svg width="24" height="24" viewBox="0 0 24 24" fill="none" xmlns="http://www.w3.org/2000/svg">
<path d="M19.2276 19.0766C19.1728 19.8747 18.8685 20.6185 18.3483 21.2268C17.8283 21.835 17.1409 22.2505 16.3605 22.4287C16.0857 22.4915 15.8086 22.5224 15.5329 22.5224C15.0255 22.5224 14.5227 22.4175 14.0486 22.2088C13.1206 21.8008 12.1249 21.5968 11.129 21.5968C10.1503 21.5968 9.17159 21.7937 8.25716 22.1877L8.20919 22.2088C7.47622 22.5308 6.67678 22.6068 5.89638 22.4287C5.11653 22.25 4.42915 21.8345 3.90859 21.2262C3.38893 20.6176 3.08516 19.8743 3.03023 19.0762C2.9753 18.278 3.1747 17.4996 3.60646 16.8262L6.20876 12.7665C7.28872 11.082 9.12801 10.0762 11.129 10.0762C13.13 10.0762 14.9691 11.082 16.049 12.7665L18.6513 16.8262C19.0833 17.5 19.2825 18.278 19.2276 19.0766Z" fill="#AFCA0B"/>
<path d="M4.30761 12.7611C5.08178 12.4638 5.66992 11.8399 5.96362 11.0046C6.24322 10.2094 6.22033 9.31179 5.89898 8.47701C5.57745 7.64241 4.99261 6.96126 4.25231 6.5588C3.4743 6.13582 2.61974 6.06716 1.84685 6.36489C0.291921 6.96273 -0.421642 8.88442 0.256398 10.6492C0.798025 12.054 2.06127 12.9408 3.33843 12.9408C3.66454 12.9408 3.99157 12.8829 4.30761 12.7611Z" fill="#AFCA0B"/>
<path d="M12.8824 5.5644C12.8824 7.04334 12.1765 8.33808 11.1289 9.03498C10.6078 9.38197 10.0019 9.58082 9.35666 9.58082C7.413 9.58082 5.8317 7.77869 5.8317 5.5644C5.8317 3.349 7.413 1.54688 9.35666 1.54688C10.0019 1.54688 10.6078 1.74573 11.1289 2.09271C12.1765 2.78961 12.8824 4.08472 12.8824 5.5644Z" fill="#AFCA0B"/>
<path d="M19.6792 8.09641C19.1521 9.68193 17.7705 10.7141 16.3529 10.7141C16.0495 10.7141 15.7443 10.6669 15.4451 10.5674C13.7512 10.0042 12.8935 7.97923 13.5337 6.05369C13.8365 5.14127 14.4303 4.3801 15.205 3.91062C16.0162 3.41971 16.9261 3.30289 17.7672 3.58249C18.6086 3.86246 19.2674 4.50022 19.6228 5.37894C19.9629 6.2183 19.983 7.18345 19.6792 8.09641Z" fill="#AFCA0B"/>
<path d="M23.2601 14.6512C22.5449 15.6168 21.4745 16.1419 20.4456 16.1419C19.8551 16.1419 19.2783 15.9694 18.7901 15.6074C17.4518 14.617 17.2764 12.5746 18.399 11.0552C19.5231 9.53692 21.5277 9.10772 22.8686 10.0981L22.869 10.0987C24.2079 11.09 24.3833 13.1322 23.2601 14.6512Z" fill="#AFCA0B"/>
<path d="M11.1289 9.03504V2.09277C12.1765 2.78967 12.8824 4.08478 12.8824 5.56446C12.8824 7.0434 12.1765 8.33814 11.1289 9.03504Z" fill="#AFCA0B"/>
<path d="M18.6513 16.8262C19.0832 17.5 19.2824 18.278 19.2275 19.0765C19.1728 19.8747 18.8684 20.6185 18.3482 21.2268C17.8282 21.835 17.1408 22.2505 16.3604 22.4287C16.0856 22.4915 15.8086 22.5224 15.5328 22.5224C15.0254 22.5224 14.5226 22.4175 14.0486 22.2088C13.1206 21.8008 12.1248 21.5968 11.1289 21.5968V10.0762C13.1299 10.0762 14.969 11.082 16.049 12.7665L18.6513 16.8262Z" fill="#AFCA0B"/>
</svg>
