<svg width="175" height="175" viewBox="0 0 175 175" fill="none" xmlns="http://www.w3.org/2000/svg">
<g opacity="0.6">
<path d="M117.148 56.176C111.045 56.0051 104.814 58.0108 99.7004 62.7385C94.5643 67.4875 91.5947 74.2728 91.5937 81.2673C91.5937 87.3797 94.0263 95.4229 100.098 98.189C104.239 100.074 106.458 96.9353 109.853 95.3962C114.005 93.5122 117.912 93.7795 122.314 95.32C126.033 96.6205 129.809 100.04 133.873 98.1904C139.948 95.4266 142.382 87.3811 142.382 81.2677C142.38 66.6224 130.05 56.5366 117.148 56.1764V56.176Z" fill="#DBB99F"/>
<path d="M142.382 81.2675C142.382 87.3809 139.949 95.4265 133.872 98.1889C131.752 99.1527 129.708 98.6845 127.711 97.8259C133.261 94.7764 135.5 87.1311 135.496 81.2675C135.496 67.6674 124.86 57.9987 113.009 56.4018C114.383 56.2094 115.769 56.1386 117.147 56.1762C130.05 56.5378 142.378 66.625 142.382 81.2675Z" fill="#CA6D36"/>
<path d="M131.297 29.5201C131.297 37.4228 124.891 43.8301 116.988 43.8301C109.086 43.8301 102.678 37.4228 102.678 29.5201C102.678 21.6177 109.085 15.2114 116.988 15.2114C124.891 15.2114 131.297 21.6174 131.297 29.5201Z" fill="#D97F4A"/>
<path d="M160.721 44.7127C160.721 51.0373 155.592 56.1657 149.266 56.1657C142.94 56.1657 137.812 51.0373 137.812 44.7127C137.812 38.3871 142.94 33.2588 149.266 33.2588C155.592 33.2588 160.721 38.3871 160.721 44.7127Z" fill="#D97F4A"/>
<path d="M96.1625 44.7127C96.1625 51.0373 91.0356 56.1657 84.7096 56.1657C78.3836 56.1657 73.2553 51.0373 73.2553 44.7127C73.2553 38.3871 78.3836 33.2588 84.7096 33.2588C91.0356 33.2588 96.1625 38.3871 96.1625 44.7127Z" fill="#D97F4A"/>
<path d="M131.298 29.5214C131.298 37.4227 124.891 43.83 116.989 43.83C114.059 43.8334 111.199 42.9343 108.797 41.2549C109.461 41.351 110.141 41.3992 110.834 41.3992C118.736 41.3992 125.143 34.9918 125.143 27.0905C125.143 22.236 122.723 17.9447 119.027 15.356C125.964 16.3437 131.299 22.3105 131.299 29.5217L131.298 29.5214Z" fill="#CA6D36"/>
<path d="M160.722 44.7113C160.722 51.0369 155.594 56.1652 149.268 56.1652C146.584 56.1652 144.113 55.2427 142.159 53.694C142.475 53.7207 142.792 53.734 143.114 53.734C149.439 53.734 154.568 48.6057 154.568 42.2811C154.568 38.6389 152.869 35.3946 150.222 33.2983C156.1 33.7803 160.722 38.7083 160.722 44.7109V44.7113Z" fill="#CA6D36"/>
<path d="M96.1639 44.7113C96.1639 51.0369 91.0355 56.1652 84.7096 56.1652C82.0258 56.1652 79.5532 55.2427 77.6012 53.694C77.9164 53.7207 78.2342 53.734 78.5559 53.734C84.8805 53.734 90.0088 48.6057 90.0088 42.2811C90.0088 38.6389 88.3104 35.3946 85.6642 33.2983C91.5414 33.7803 96.1639 38.7083 96.1639 44.7109V44.7113Z" fill="#CA6D36"/>
<path d="M39.4307 155.532H4.59407C4.32755 155.532 4.06365 155.48 3.81743 155.378C3.57121 155.276 3.34749 155.126 3.15905 154.938C2.97061 154.749 2.82115 154.526 2.71919 154.279C2.61723 154.033 2.56477 153.769 2.56482 153.503V99.8089C2.56477 99.5424 2.61723 99.2785 2.71919 99.0322C2.82115 98.786 2.97061 98.5622 3.15905 98.3738C3.34749 98.1853 3.57121 98.0358 3.81743 97.9338C4.06365 97.8318 4.32755 97.7793 4.59407 97.7793H39.4307C39.6973 97.7792 39.9613 97.8316 40.2077 97.9336C40.4541 98.0355 40.6779 98.185 40.8665 98.3735C41.0551 98.5619 41.2047 98.7857 41.3068 99.032C41.409 99.2783 41.4616 99.5423 41.4616 99.8089V153.503C41.4616 153.769 41.409 154.033 41.3068 154.28C41.2047 154.526 41.0551 154.75 40.8665 154.938C40.6779 155.127 40.4541 155.276 40.2077 155.378C39.9613 155.48 39.6973 155.532 39.4307 155.532Z" fill="#AFCA0B" fill-opacity="0.5"/>
<path d="M39.4307 155.533H4.59407C4.32755 155.533 4.06365 155.48 3.81743 155.378C3.57121 155.276 3.34749 155.127 3.15905 154.938C2.97061 154.75 2.82115 154.526 2.71919 154.28C2.61723 154.033 2.56477 153.769 2.56482 153.503V140.559H41.4613V153.503C41.4611 154.041 41.2471 154.558 40.8664 154.938C40.4857 155.319 39.9694 155.533 39.431 155.533H39.4307Z" fill="#AFCA0B"/>
<path d="M55.2282 104.889H70.6785C72.9974 104.89 75.3029 105.243 77.5158 105.936L118.726 118.859C122.78 120.13 127.149 119.966 131.097 118.396L157.937 107.717C160.005 106.894 162.28 106.744 164.437 107.289C166.595 107.834 168.526 109.046 169.956 110.752C173.434 114.903 173.216 121.004 169.454 124.899C160.624 134.039 143.52 149.657 123.457 157.263C117.686 159.45 111.494 160.286 105.346 159.764C92.3104 158.657 66.8185 155.434 55.2282 146.662V104.889Z" fill="#FED2A4"/>
<path d="M172.429 117.547C172.429 120.205 171.43 122.859 169.455 124.9C160.626 134.039 143.521 149.659 123.457 157.265C117.686 159.448 111.492 160.287 105.348 159.763C92.3091 158.66 66.8175 155.433 55.2282 146.664V137.58C66.8172 146.356 92.3091 149.576 105.348 150.684C111.492 151.204 117.686 150.37 123.457 148.181C143.521 140.574 160.626 124.96 169.455 115.821C170.256 114.998 170.914 114.047 171.403 113.008C172.087 114.442 172.429 115.997 172.429 117.547Z" fill="#FFBD86"/>
<path d="M53.2854 150.834H41.4617V102.478H53.2854C53.5406 102.477 53.7933 102.528 54.0291 102.625C54.2648 102.723 54.4791 102.866 54.6595 103.046C54.8399 103.227 54.983 103.441 55.0806 103.677C55.1782 103.912 55.2284 104.165 55.2282 104.42V148.891C55.2283 149.147 55.1781 149.399 55.0805 149.635C54.9829 149.871 54.8398 150.085 54.6594 150.265C54.4789 150.446 54.2647 150.589 54.029 150.686C53.7932 150.784 53.5406 150.834 53.2854 150.834Z" fill="#F9EFEF"/>
<path d="M53.2854 150.834H41.4617V136.461H55.2282V148.891C55.2284 149.146 55.1782 149.399 55.0806 149.635C54.983 149.871 54.8399 150.085 54.6595 150.265C54.4791 150.446 54.2648 150.589 54.0291 150.686C53.7933 150.784 53.5406 150.834 53.2854 150.834Z" fill="#EFE2DD"/>
<path d="M171.921 109.105C170.147 106.982 167.748 105.475 165.067 104.798C162.385 104.121 159.558 104.309 156.989 105.335L130.148 116.012C126.748 117.36 122.988 117.502 119.497 116.412L78.2821 103.489C75.8215 102.717 73.2575 102.324 70.6785 102.325H57.2735C56.5182 100.892 55.0146 99.9122 53.2854 99.9122H44.0262V99.8083C44.0262 97.2756 41.9651 95.2139 39.4307 95.2139H4.59409C2.06138 95.2142 0 97.2759 0 99.8086V153.503C0 156.035 2.06138 158.097 4.59409 158.097H7.77588C9.19263 158.097 10.3394 156.949 10.3394 155.532C10.3394 154.116 9.19263 152.969 7.77588 152.969H5.12832V100.343H38.8965V152.969H19.6854C18.2687 152.969 17.122 154.115 17.122 155.532C17.122 156.949 18.2687 158.097 19.6854 158.097H39.4321C41.9648 158.097 44.0265 156.036 44.0265 153.503V153.399H53.2858C54.9972 153.399 56.4884 152.44 57.251 151.033C70.1685 158.358 92.3306 161.233 105.129 162.319C106.367 162.424 107.607 162.476 108.848 162.476C114.16 162.476 119.46 161.519 124.366 159.66C145.058 151.816 162.653 135.632 171.299 126.681C173.561 124.349 174.877 121.26 174.992 118.013C175.106 114.766 174.012 111.592 171.921 109.105V109.105ZM52.6647 146.663V148.27H44.0251V105.041H52.6647V146.663ZM167.61 123.117C159.263 131.758 142.306 147.374 122.548 154.865C117.211 156.887 111.338 157.701 105.563 157.208C75.3703 154.647 62.5516 148.513 57.7931 145.338V107.454H70.6788C72.7374 107.453 74.784 107.767 76.7481 108.383L117.956 121.304L118.043 121.331C120.903 122.215 122.672 125.056 122.159 127.94L122.099 128.278C121.572 131.235 118.814 133.327 115.826 133.051L81.7376 129.848C80.3342 129.716 79.0778 130.752 78.9459 132.162C78.8122 133.572 79.8482 134.821 81.2581 134.955L115.347 138.158C115.686 138.19 116.023 138.205 116.358 138.205C121.582 138.205 126.218 134.406 127.148 129.177L127.209 128.84C127.624 126.502 127.249 124.183 126.262 122.167C128.245 121.98 130.192 121.512 132.044 120.778L158.885 110.1C160.452 109.475 162.176 109.361 163.811 109.774C165.446 110.186 166.91 111.105 167.992 112.399C169.267 113.916 169.934 115.852 169.863 117.832C169.793 119.812 168.99 121.695 167.61 123.117Z" fill="black"/>
<path d="M97.5871 69.3022C98.3322 68.0977 97.962 66.5169 96.7579 65.7721C95.5548 65.0257 93.9729 65.3955 93.2278 66.601C90.4815 71.031 89.0302 76.1033 89.0302 81.2675C89.0288 88.583 92.1221 97.3737 99.0356 100.523C100.313 101.105 101.484 101.336 102.559 101.336C105.085 101.336 107.076 100.056 108.657 99.0386C109.427 98.543 110.155 98.0757 110.913 97.7315C114.127 96.2748 117.283 96.2762 121.467 97.7394C122.343 98.0463 123.284 98.5231 124.28 99.028C127.222 100.516 130.882 102.37 134.936 100.524C141.853 97.3774 144.949 88.5854 144.946 81.2675C144.946 73.7029 141.894 66.6813 136.356 61.4946C131.216 56.6821 124.242 53.8093 117.22 53.6127C111.984 53.4647 106.893 54.7919 102.485 57.4487C102.197 57.6223 101.945 57.8511 101.745 58.122C101.545 58.3929 101.4 58.7006 101.319 59.0275C101.238 59.3544 101.222 59.694 101.273 60.027C101.323 60.36 101.438 60.6798 101.612 60.9682C102.343 62.1816 103.918 62.5716 105.132 61.8415C108.697 59.6933 112.825 58.6197 117.076 58.7397C122.864 58.9013 128.613 61.27 132.85 65.2379C137.342 69.4451 139.816 75.1381 139.817 81.2692C139.819 86.7592 137.627 93.6662 132.812 95.8571C131.088 96.6405 129.327 95.8342 126.597 94.4523C125.495 93.8942 124.357 93.3186 123.162 92.8995C117.69 90.9862 113.259 91.0368 108.794 93.0622C107.695 93.5602 106.733 94.1799 105.882 94.7261C103.626 96.1774 102.762 96.5845 101.161 95.8568C96.3495 93.6645 94.1572 86.7581 94.1582 81.2702C94.1582 77.0593 95.3442 72.9201 97.5871 69.3022Z" fill="black"/>
<path d="M116.988 46.3935C126.293 46.3935 133.862 38.8247 133.862 29.52C133.861 20.2156 126.293 12.6465 116.988 12.6465C107.683 12.6465 100.114 20.2156 100.114 29.52C100.114 38.8247 107.683 46.3935 116.988 46.3935ZM116.988 17.7748C123.464 17.7748 128.733 23.0433 128.733 29.52C128.733 35.997 123.465 41.2651 116.988 41.2651C110.511 41.2651 105.243 35.9967 105.243 29.52C105.243 23.0433 110.512 17.7748 116.988 17.7748Z" fill="black"/>
<path d="M149.266 58.7304C156.995 58.7304 163.284 52.442 163.284 44.7127C163.284 36.9822 156.995 30.6938 149.266 30.6938C141.537 30.6938 135.249 36.9822 135.249 44.7127C135.249 52.442 141.537 58.7304 149.266 58.7304H149.266ZM149.266 35.8222C154.167 35.8222 158.156 39.8103 158.156 44.7127C158.156 49.614 154.168 53.6021 149.266 53.6021C144.365 53.6021 140.377 49.614 140.377 44.7127C140.377 39.8103 144.365 35.8222 149.266 35.8222H149.266Z" fill="black"/>
<path d="M84.7096 58.7304C92.4386 58.7304 98.7273 52.442 98.7273 44.7127C98.7273 36.9822 92.4386 30.6938 84.7096 30.6938C76.9791 30.6938 70.6904 36.9822 70.6904 44.7127C70.6904 52.442 76.9791 58.7304 84.7096 58.7304ZM84.7096 35.8222C89.6109 35.8222 93.599 39.8103 93.599 44.7127C93.599 49.614 89.6109 53.6021 84.7096 53.6021C79.8068 53.6021 75.8201 49.614 75.8201 44.7127C75.8201 39.8103 79.8068 35.8222 84.7096 35.8222Z" fill="black"/>
</g>
</svg>
