<svg width="60" height="60" viewBox="0 0 60 60" fill="none" xmlns="http://www.w3.org/2000/svg">
<g clip-path="url(#clip0)">
<path d="M48.0689 47.6911C47.932 49.6865 47.1712 51.546 45.8707 53.0667C44.5707 54.5874 42.8522 55.626 40.9012 56.0714C40.2141 56.2284 39.5215 56.3058 38.8321 56.3058C37.5637 56.3058 36.3066 56.0435 35.1215 55.5216C32.8015 54.5017 30.3122 53.9918 27.8224 53.9918C25.3757 53.9918 22.9289 54.4839 20.6429 55.469L20.5229 55.5216C18.6905 56.3269 16.6919 56.5168 14.7409 56.0714C12.7913 55.6246 11.0729 54.586 9.77143 53.0653C8.4723 51.5437 7.71287 49.6856 7.57554 47.6902C7.43821 45.6948 7.93671 43.7489 9.01612 42.0652L15.5219 31.9161C18.2218 27.7047 22.82 25.1902 27.8224 25.1902C32.8249 25.1902 37.4227 27.7047 40.1226 31.9161L46.6283 42.0652C47.7082 43.7498 48.2062 45.6948 48.0689 47.6911Z" fill="white"/>
<path d="M10.7689 31.9028C12.7043 31.1594 14.1747 29.5998 14.9089 27.5115C15.6079 25.5234 15.5507 23.2795 14.7473 21.1925C13.9435 19.106 12.4814 17.4032 10.6306 16.397C8.68561 15.3396 6.54922 15.1679 4.617 15.9122C0.729664 17.4068 -1.05424 22.2111 0.640858 26.623C1.99492 30.1349 5.15304 32.3519 8.34595 32.3519C9.16122 32.3519 9.97879 32.2072 10.7689 31.9028Z" fill="white"/>
<path d="M32.2059 13.911C32.2059 17.6084 30.4413 20.8452 27.8224 22.5875C26.5196 23.4549 25.0049 23.952 23.3917 23.952C18.5325 23.952 14.5793 19.4467 14.5793 13.911C14.5793 8.3725 18.5325 3.86719 23.3917 3.86719C25.0049 3.86719 26.5196 4.36432 27.8224 5.23178C30.4413 6.97403 32.2059 10.2118 32.2059 13.911Z" fill="white"/>
<path d="M49.1982 20.2413C47.8803 24.2051 44.4265 26.7855 40.8825 26.7855C40.1239 26.7855 39.3609 26.6674 38.6129 26.4188C34.3781 25.0107 32.2339 19.9483 33.8343 15.1345C34.5914 12.8534 36.0759 10.9505 38.0127 9.77679C40.0406 8.54953 42.3153 8.25747 44.4182 8.95648C46.5217 9.6564 48.1687 11.2508 49.0572 13.4476C49.9073 15.546 49.9576 17.9589 49.1982 20.2413Z" fill="white"/>
<path d="M58.1503 36.6279C56.3622 39.0416 53.6862 40.3545 51.114 40.3545C49.6377 40.3545 48.1957 39.9233 46.9753 39.0183C43.6295 36.5423 43.191 31.4364 45.9975 27.6378C48.8078 23.8421 53.8194 22.7691 57.1716 25.2451L57.1725 25.2465C60.5197 27.7248 60.9582 32.8302 58.1503 36.6279Z" fill="white"/>
<path d="M27.8224 22.5874V5.23169C30.4413 6.97394 32.206 10.2117 32.206 13.9109C32.206 17.6083 30.4413 20.8451 27.8224 22.5874Z" fill="white"/>
<path d="M46.6283 42.0652C47.7082 43.7498 48.2062 45.6948 48.0689 47.6911C47.932 49.6865 47.1712 51.546 45.8707 53.0667C44.5707 54.5874 42.8522 55.626 40.9012 56.0714C40.2141 56.2284 39.5215 56.3058 38.8321 56.3058C37.5637 56.3058 36.3067 56.0435 35.1215 55.5216C32.8016 54.5017 30.3122 53.9918 27.8224 53.9918V25.1902C32.8249 25.1902 37.4227 27.7047 40.1226 31.9161L46.6283 42.0652Z" fill="white"/>
</g>
<defs>
<clipPath id="clip0">
<rect width="60" height="60" fill="white"/>
</clipPath>
</defs>
</svg>
